<?xml version="1.0" encoding="UTF-8" standalone="no"?>
<!DOCTYPE svg PUBLIC "-//W3C//DTD SVG 1.1//EN" "http://www.w3.org/Graphics/SVG/1.1/DTD/svg11.dtd">
<!-- Created with Vectornator (http://vectornator.io/) -->
<svg height="900.0pt" stroke-miterlimit="10" style="fill-rule:nonzero;clip-rule:evenodd;stroke-linecap:round;stroke-linejoin:round;" version="1.1" viewBox="0 0 900 900" width="900.0pt" xml:space="preserve" xmlns="http://www.w3.org/2000/svg" xmlns:xlink="http://www.w3.org/1999/xlink">
<defs/>
<clipPath id="ArtboardFrame">
<rect height="900" width="900" x="0" y="0"/>
</clipPath>
<g clip-path="url(#ArtboardFrame)" id="Untitled">
<path d="M-3 25C-3 9.53603 9.53603-3 25-3C40.464-3 53 9.53603 53 25C53 40.464 40.464 53 25 53C9.53603 53-3 40.464-3 25Z" fill="#00243c" fill-rule="nonzero" opacity="1" stroke="none"/>
<path d="M47 25C47 9.53603 59.536-3 75-3C90.464-3 103 9.53603 103 25C103 40.464 90.464 53 75 53C59.536 53 47 40.464 47 25Z" fill="#00243c" fill-rule="nonzero" opacity="1" stroke="none"/>
<path d="M97 25C97 9.53603 109.536-3 125-3C140.464-3 153 9.53603 153 25C153 40.464 140.464 53 125 53C109.536 53 97 40.464 97 25Z" fill="#00243c" fill-rule="nonzero" opacity="1" stroke="none"/>
<path d="M147 25C147 9.53603 159.536-3 175-3C190.464-3 203 9.53603 203 25C203 40.464 190.464 53 175 53C159.536 53 147 40.464 147 25Z" fill="#00243c" fill-rule="nonzero" opacity="1" stroke="none"/>
<path d="M197 25C197 9.53603 209.536-3 225-3C240.464-3 253 9.53603 253 25C253 40.464 240.464 53 225 53C209.536 53 197 40.464 197 25Z" fill="#00243c" fill-rule="nonzero" opacity="1" stroke="none"/>
<path d="M247 25C247 9.53603 259.536-3 275-3C290.464-3 303 9.53603 303 25C303 40.464 290.464 53 275 53C259.536 53 247 40.464 247 25Z" fill="#00243c" fill-rule="nonzero" opacity="1" stroke="none"/>
<path d="M297 25C297 9.53603 309.536-3 325-3C340.464-3 353 9.53603 353 25C353 40.464 340.464 53 325 53C309.536 53 297 40.464 297 25Z" fill="#00243c" fill-rule="nonzero" opacity="1" stroke="none"/>
<path d="M347 25C347 9.53603 359.536-3 375-3C390.464-3 403 9.53603 403 25C403 40.464 390.464 53 375 53C359.536 53 347 40.464 347 25Z" fill="#00243c" fill-rule="nonzero" opacity="1" stroke="none"/>
<path d="M397 25C397 9.53603 409.536-3 425-3C440.464-3 453 9.53603 453 25C453 40.464 440.464 53 425 53C409.536 53 397 40.464 397 25Z" fill="#00243c" fill-rule="nonzero" opacity="1" stroke="none"/>
<path d="M447 25C447 9.53603 459.536-3 475-3C490.464-3 503 9.53603 503 25C503 40.464 490.464 53 475 53C459.536 53 447 40.464 447 25Z" fill="#00243c" fill-rule="nonzero" opacity="1" stroke="none"/>
<path d="M497 25C497 9.53603 509.536-3 525-3C540.464-3 553 9.53603 553 25C553 40.464 540.464 53 525 53C509.536 53 497 40.464 497 25Z" fill="#00243c" fill-rule="nonzero" opacity="1" stroke="none"/>
<path d="M547 25C547 9.53603 559.536-3 575-3C590.464-3 603 9.53603 603 25C603 40.464 590.464 53 575 53C559.536 53 547 40.464 547 25Z" fill="#00243c" fill-rule="nonzero" opacity="1" stroke="none"/>
<path d="M597 25C597 9.53603 609.536-3 625-3C640.464-3 653 9.53603 653 25C653 40.464 640.464 53 625 53C609.536 53 597 40.464 597 25Z" fill="#00243c" fill-rule="nonzero" opacity="1" stroke="none"/>
<path d="M647 25C647 9.53603 659.536-3 675-3C690.464-3 703 9.53603 703 25C703 40.464 690.464 53 675 53C659.536 53 647 40.464 647 25Z" fill="#00243c" fill-rule="nonzero" opacity="1" stroke="none"/>
<path d="M697 25C697 9.53603 709.536-3 725-3C740.464-3 753 9.53603 753 25C753 40.464 740.464 53 725 53C709.536 53 697 40.464 697 25Z" fill="#00243c" fill-rule="nonzero" opacity="1" stroke="none"/>
<path d="M747 25C747 9.53603 759.536-3 775-3C790.464-3 803 9.53603 803 25C803 40.464 790.464 53 775 53C759.536 53 747 40.464 747 25Z" fill="#00243c" fill-rule="nonzero" opacity="1" stroke="none"/>
<path d="M797 25C797 9.53603 809.536-3 825-3C840.464-3 853 9.53603 853 25C853 40.464 840.464 53 825 53C809.536 53 797 40.464 797 25Z" fill="#00243c" fill-rule="nonzero" opacity="1" stroke="none"/>
<path d="M847 25C847 9.53603 859.536-3 875-3C890.464-3 903 9.53603 903 25C903 40.464 890.464 53 875 53C859.536 53 847 40.464 847 25Z" fill="#00243c" fill-rule="nonzero" opacity="1" stroke="none"/>
<path d="M-1.71 75C-1.71 60.2485 10.2485 48.29 25 48.29C39.7515 48.29 51.71 60.2485 51.71 75C51.71 89.7515 39.7515 101.71 25 101.71C10.2485 101.71-1.71 89.7515-1.71 75Z" fill="#00243c" fill-rule="nonzero" opacity="1" stroke="none"/>
<path d="M48.29 75C48.29 60.2485 60.2485 48.29 75 48.29C89.7515 48.29 101.71 60.2485 101.71 75C101.71 89.7515 89.7515 101.71 75 101.71C60.2485 101.71 48.29 89.7515 48.29 75Z" fill="#00243c" fill-rule="nonzero" opacity="1" stroke="none"/>
<path d="M98.29 75C98.29 60.2485 110.248 48.29 125 48.29C139.752 48.29 151.71 60.2485 151.71 75C151.71 89.7515 139.752 101.71 125 101.71C110.248 101.71 98.29 89.7515 98.29 75Z" fill="#00243c" fill-rule="nonzero" opacity="1" stroke="none"/>
<path d="M148.29 75C148.29 60.2485 160.248 48.29 175 48.29C189.752 48.29 201.71 60.2485 201.71 75C201.71 89.7515 189.752 101.71 175 101.71C160.248 101.71 148.29 89.7515 148.29 75Z" fill="#00243c" fill-rule="nonzero" opacity="1" stroke="none"/>
<path d="M198.29 75C198.29 60.2485 210.248 48.29 225 48.29C239.752 48.29 251.71 60.2485 251.71 75C251.71 89.7515 239.752 101.71 225 101.71C210.248 101.71 198.29 89.7515 198.29 75Z" fill="#00243c" fill-rule="nonzero" opacity="1" stroke="none"/>
<path d="M248.29 75C248.29 60.2485 260.248 48.29 275 48.29C289.752 48.29 301.71 60.2485 301.71 75C301.71 89.7515 289.752 101.71 275 101.71C260.248 101.71 248.29 89.7515 248.29 75Z" fill="#00243c" fill-rule="nonzero" opacity="1" stroke="none"/>
<path d="M298.29 75C298.29 60.2485 310.248 48.29 325 48.29C339.752 48.29 351.71 60.2485 351.71 75C351.71 89.7515 339.752 101.71 325 101.71C310.248 101.71 298.29 89.7515 298.29 75Z" fill="#00243c" fill-rule="nonzero" opacity="1" stroke="none"/>
<path d="M348.29 75C348.29 60.2485 360.248 48.29 375 48.29C389.752 48.29 401.71 60.2485 401.71 75C401.71 89.7515 389.752 101.71 375 101.71C360.248 101.71 348.29 89.7515 348.29 75Z" fill="#00243c" fill-rule="nonzero" opacity="1" stroke="none"/>
<path d="M398.29 75C398.29 60.2485 410.248 48.29 425 48.29C439.752 48.29 451.71 60.2485 451.71 75C451.71 89.7515 439.752 101.71 425 101.71C410.248 101.71 398.29 89.7515 398.29 75Z" fill="#00243c" fill-rule="nonzero" opacity="1" stroke="none"/>
<path d="M448.29 75C448.29 60.2485 460.248 48.29 475 48.29C489.752 48.29 501.71 60.2485 501.71 75C501.71 89.7515 489.752 101.71 475 101.71C460.248 101.71 448.29 89.7515 448.29 75Z" fill="#00243c" fill-rule="nonzero" opacity="1" stroke="none"/>
<path d="M498.29 75C498.29 60.2485 510.248 48.29 525 48.29C539.752 48.29 551.71 60.2485 551.71 75C551.71 89.7515 539.752 101.71 525 101.71C510.248 101.71 498.29 89.7515 498.29 75Z" fill="#00243c" fill-rule="nonzero" opacity="1" stroke="none"/>
<path d="M548.29 75C548.29 60.2485 560.248 48.29 575 48.29C589.752 48.29 601.71 60.2485 601.71 75C601.71 89.7515 589.752 101.71 575 101.71C560.248 101.71 548.29 89.7515 548.29 75Z" fill="#00243c" fill-rule="nonzero" opacity="1" stroke="none"/>
<path d="M598.29 75C598.29 60.2485 610.248 48.29 625 48.29C639.752 48.29 651.71 60.2485 651.71 75C651.71 89.7515 639.752 101.71 625 101.71C610.248 101.71 598.29 89.7515 598.29 75Z" fill="#00243c" fill-rule="nonzero" opacity="1" stroke="none"/>
<path d="M648.29 75C648.29 60.2485 660.248 48.29 675 48.29C689.752 48.29 701.71 60.2485 701.71 75C701.71 89.7515 689.752 101.71 675 101.71C660.248 101.71 648.29 89.7515 648.29 75Z" fill="#00243c" fill-rule="nonzero" opacity="1" stroke="none"/>
<path d="M698.29 75C698.29 60.2485 710.248 48.29 725 48.29C739.752 48.29 751.71 60.2485 751.71 75C751.71 89.7515 739.752 101.71 725 101.71C710.248 101.71 698.29 89.7515 698.29 75Z" fill="#00243c" fill-rule="nonzero" opacity="1" stroke="none"/>
<path d="M748.29 75C748.29 60.2485 760.248 48.29 775 48.29C789.752 48.29 801.71 60.2485 801.71 75C801.71 89.7515 789.752 101.71 775 101.71C760.248 101.71 748.29 89.7515 748.29 75Z" fill="#00243c" fill-rule="nonzero" opacity="1" stroke="none"/>
<path d="M798.29 75C798.29 60.2485 810.248 48.29 825 48.29C839.752 48.29 851.71 60.2485 851.71 75C851.71 89.7515 839.752 101.71 825 101.71C810.248 101.71 798.29 89.7515 798.29 75Z" fill="#00243c" fill-rule="nonzero" opacity="1" stroke="none"/>
<path d="M848.29 75C848.29 60.2485 860.248 48.29 875 48.29C889.752 48.29 901.71 60.2485 901.71 75C901.71 89.7515 889.752 101.71 875 101.71C860.248 101.71 848.29 89.7515 848.29 75Z" fill="#00243c" fill-rule="nonzero" opacity="1" stroke="none"/>
<path d="M-0.41 125C-0.41 110.966 10.9664 99.59 25 99.59C39.0336 99.59 50.41 110.966 50.41 125C50.41 139.034 39.0336 150.41 25 150.41C10.9664 150.41-0.41 139.034-0.41 125Z" fill="#00243c" fill-rule="nonzero" opacity="1" stroke="none"/>
<path d="M49.59 125C49.59 110.966 60.9664 99.59 75 99.59C89.0336 99.59 100.41 110.966 100.41 125C100.41 139.034 89.0336 150.41 75 150.41C60.9664 150.41 49.59 139.034 49.59 125Z" fill="#00243c" fill-rule="nonzero" opacity="1" stroke="none"/>
<path d="M99.59 125C99.59 110.966 110.966 99.59 125 99.59C139.034 99.59 150.41 110.966 150.41 125C150.41 139.034 139.034 150.41 125 150.41C110.966 150.41 99.59 139.034 99.59 125Z" fill="#00243c" fill-rule="nonzero" opacity="1" stroke="none"/>
<path d="M149.59 125C149.59 110.966 160.966 99.59 175 99.59C189.034 99.59 200.41 110.966 200.41 125C200.41 139.034 189.034 150.41 175 150.41C160.966 150.41 149.59 139.034 149.59 125Z" fill="#00243c" fill-rule="nonzero" opacity="1" stroke="none"/>
<path d="M199.59 125C199.59 110.966 210.966 99.59 225 99.59C239.034 99.59 250.41 110.966 250.41 125C250.41 139.034 239.034 150.41 225 150.41C210.966 150.41 199.59 139.034 199.59 125Z" fill="#00243c" fill-rule="nonzero" opacity="1" stroke="none"/>
<path d="M249.59 125C249.59 110.966 260.966 99.59 275 99.59C289.034 99.59 300.41 110.966 300.41 125C300.41 139.034 289.034 150.41 275 150.41C260.966 150.41 249.59 139.034 249.59 125Z" fill="#00243c" fill-rule="nonzero" opacity="1" stroke="none"/>
<path d="M299.59 125C299.59 110.966 310.966 99.59 325 99.59C339.034 99.59 350.41 110.966 350.41 125C350.41 139.034 339.034 150.41 325 150.41C310.966 150.41 299.59 139.034 299.59 125Z" fill="#00243c" fill-rule="nonzero" opacity="1" stroke="none"/>
<path d="M349.59 125C349.59 110.966 360.966 99.59 375 99.59C389.034 99.59 400.41 110.966 400.41 125C400.41 139.034 389.034 150.41 375 150.41C360.966 150.41 349.59 139.034 349.59 125Z" fill="#00243c" fill-rule="nonzero" opacity="1" stroke="none"/>
<path d="M399.59 125C399.59 110.966 410.966 99.59 425 99.59C439.034 99.59 450.41 110.966 450.41 125C450.41 139.034 439.034 150.41 425 150.41C410.966 150.41 399.59 139.034 399.59 125Z" fill="#00243c" fill-rule="nonzero" opacity="1" stroke="none"/>
<path d="M449.59 125C449.59 110.966 460.966 99.59 475 99.59C489.034 99.59 500.41 110.966 500.41 125C500.41 139.034 489.034 150.41 475 150.41C460.966 150.41 449.59 139.034 449.59 125Z" fill="#00243c" fill-rule="nonzero" opacity="1" stroke="none"/>
<path d="M499.59 125C499.59 110.966 510.966 99.59 525 99.59C539.034 99.59 550.41 110.966 550.41 125C550.41 139.034 539.034 150.41 525 150.41C510.966 150.41 499.59 139.034 499.59 125Z" fill="#00243c" fill-rule="nonzero" opacity="1" stroke="none"/>
<path d="M549.59 125C549.59 110.966 560.966 99.59 575 99.59C589.034 99.59 600.41 110.966 600.41 125C600.41 139.034 589.034 150.41 575 150.41C560.966 150.41 549.59 139.034 549.59 125Z" fill="#00243c" fill-rule="nonzero" opacity="1" stroke="none"/>
<path d="M599.59 125C599.59 110.966 610.966 99.59 625 99.59C639.034 99.59 650.41 110.966 650.41 125C650.41 139.034 639.034 150.41 625 150.41C610.966 150.41 599.59 139.034 599.59 125Z" fill="#00243c" fill-rule="nonzero" opacity="1" stroke="none"/>
<path d="M649.59 125C649.59 110.966 660.966 99.59 675 99.59C689.034 99.59 700.41 110.966 700.41 125C700.41 139.034 689.034 150.41 675 150.41C660.966 150.41 649.59 139.034 649.59 125Z" fill="#00243c" fill-rule="nonzero" opacity="1" stroke="none"/>
<path d="M699.59 125C699.59 110.966 710.966 99.59 725 99.59C739.034 99.59 750.41 110.966 750.41 125C750.41 139.034 739.034 150.41 725 150.41C710.966 150.41 699.59 139.034 699.59 125Z" fill="#00243c" fill-rule="nonzero" opacity="1" stroke="none"/>
<path d="M749.59 125C749.59 110.966 760.966 99.59 775 99.59C789.034 99.59 800.41 110.966 800.41 125C800.41 139.034 789.034 150.41 775 150.41C760.966 150.41 749.59 139.034 749.59 125Z" fill="#00243c" fill-rule="nonzero" opacity="1" stroke="none"/>
<path d="M799.59 125C799.59 110.966 810.966 99.59 825 99.59C839.034 99.59 850.41 110.966 850.41 125C850.41 139.034 839.034 150.41 825 150.41C810.966 150.41 799.59 139.034 799.59 125Z" fill="#00243c" fill-rule="nonzero" opacity="1" stroke="none"/>
<path d="M849.59 125C849.59 110.966 860.966 99.59 875 99.59C889.034 99.59 900.41 110.966 900.41 125C900.41 139.034 889.034 150.41 875 150.41C860.966 150.41 849.59 139.034 849.59 125Z" fill="#00243c" fill-rule="nonzero" opacity="1" stroke="none"/>
<path d="M0.879999 175C0.879999 161.679 11.6789 150.88 25 150.88C38.3211 150.88 49.12 161.679 49.12 175C49.12 188.321 38.3211 199.12 25 199.12C11.6789 199.12 0.879999 188.321 0.879999 175Z" fill="#00243c" fill-rule="nonzero" opacity="1" stroke="none"/>
<path d="M50.88 175C50.88 161.679 61.6789 150.88 75 150.88C88.3211 150.88 99.12 161.679 99.12 175C99.12 188.321 88.3211 199.12 75 199.12C61.6789 199.12 50.88 188.321 50.88 175Z" fill="#00243c" fill-rule="nonzero" opacity="1" stroke="none"/>
<path d="M100.88 175C100.88 161.679 111.679 150.88 125 150.88C138.321 150.88 149.12 161.679 149.12 175C149.12 188.321 138.321 199.12 125 199.12C111.679 199.12 100.88 188.321 100.88 175Z" fill="#00243c" fill-rule="nonzero" opacity="1" stroke="none"/>
<path d="M150.88 175C150.88 161.679 161.679 150.88 175 150.88C188.321 150.88 199.12 161.679 199.12 175C199.12 188.321 188.321 199.12 175 199.12C161.679 199.12 150.88 188.321 150.88 175Z" fill="#00243c" fill-rule="nonzero" opacity="1" stroke="none"/>
<path d="M200.88 175C200.88 161.679 211.679 150.88 225 150.88C238.321 150.88 249.12 161.679 249.12 175C249.12 188.321 238.321 199.12 225 199.12C211.679 199.12 200.88 188.321 200.88 175Z" fill="#00243c" fill-rule="nonzero" opacity="1" stroke="none"/>
<path d="M250.88 175C250.88 161.679 261.679 150.88 275 150.88C288.321 150.88 299.12 161.679 299.12 175C299.12 188.321 288.321 199.12 275 199.12C261.679 199.12 250.88 188.321 250.88 175Z" fill="#00243c" fill-rule="nonzero" opacity="1" stroke="none"/>
<path d="M300.88 175C300.88 161.679 311.679 150.88 325 150.88C338.321 150.88 349.12 161.679 349.12 175C349.12 188.321 338.321 199.12 325 199.12C311.679 199.12 300.88 188.321 300.88 175Z" fill="#00243c" fill-rule="nonzero" opacity="1" stroke="none"/>
<path d="M350.88 175C350.88 161.679 361.679 150.88 375 150.88C388.321 150.88 399.12 161.679 399.12 175C399.12 188.321 388.321 199.12 375 199.12C361.679 199.12 350.88 188.321 350.88 175Z" fill="#00243c" fill-rule="nonzero" opacity="1" stroke="none"/>
<path d="M400.88 175C400.88 161.679 411.679 150.88 425 150.88C438.321 150.88 449.12 161.679 449.12 175C449.12 188.321 438.321 199.12 425 199.12C411.679 199.12 400.88 188.321 400.88 175Z" fill="#00243c" fill-rule="nonzero" opacity="1" stroke="none"/>
<path d="M450.88 175C450.88 161.679 461.679 150.88 475 150.88C488.321 150.88 499.12 161.679 499.12 175C499.12 188.321 488.321 199.12 475 199.12C461.679 199.12 450.88 188.321 450.88 175Z" fill="#00243c" fill-rule="nonzero" opacity="1" stroke="none"/>
<path d="M500.88 175C500.88 161.679 511.679 150.88 525 150.88C538.321 150.88 549.12 161.679 549.12 175C549.12 188.321 538.321 199.12 525 199.12C511.679 199.12 500.88 188.321 500.88 175Z" fill="#00243c" fill-rule="nonzero" opacity="1" stroke="none"/>
<path d="M550.88 175C550.88 161.679 561.679 150.88 575 150.88C588.321 150.88 599.12 161.679 599.12 175C599.12 188.321 588.321 199.12 575 199.12C561.679 199.12 550.88 188.321 550.88 175Z" fill="#00243c" fill-rule="nonzero" opacity="1" stroke="none"/>
<path d="M600.88 175C600.88 161.679 611.679 150.88 625 150.88C638.321 150.88 649.12 161.679 649.12 175C649.12 188.321 638.321 199.12 625 199.12C611.679 199.12 600.88 188.321 600.88 175Z" fill="#00243c" fill-rule="nonzero" opacity="1" stroke="none"/>
<path d="M650.88 175C650.88 161.679 661.679 150.88 675 150.88C688.321 150.88 699.12 161.679 699.12 175C699.12 188.321 688.321 199.12 675 199.12C661.679 199.12 650.88 188.321 650.88 175Z" fill="#00243c" fill-rule="nonzero" opacity="1" stroke="none"/>
<path d="M700.88 175C700.88 161.679 711.679 150.88 725 150.88C738.321 150.88 749.12 161.679 749.12 175C749.12 188.321 738.321 199.12 725 199.12C711.679 199.12 700.88 188.321 700.88 175Z" fill="#00243c" fill-rule="nonzero" opacity="1" stroke="none"/>
<path d="M750.88 175C750.88 161.679 761.679 150.88 775 150.88C788.321 150.88 799.12 161.679 799.12 175C799.12 188.321 788.321 199.12 775 199.12C761.679 199.12 750.88 188.321 750.88 175Z" fill="#00243c" fill-rule="nonzero" opacity="1" stroke="none"/>
<path d="M800.88 175C800.88 161.679 811.679 150.88 825 150.88C838.321 150.88 849.12 161.679 849.12 175C849.12 188.321 838.321 199.12 825 199.12C811.679 199.12 800.88 188.321 800.88 175Z" fill="#00243c" fill-rule="nonzero" opacity="1" stroke="none"/>
<path d="M850.88 175C850.88 161.679 861.679 150.88 875 150.88C888.321 150.88 899.12 161.679 899.12 175C899.12 188.321 888.321 199.12 875 199.12C861.679 199.12 850.88 188.321 850.88 175Z" fill="#00243c" fill-rule="nonzero" opacity="1" stroke="none"/>
<path d="M2.18 225C2.18 212.397 12.3969 202.18 25 202.18C37.6031 202.18 47.82 212.397 47.82 225C47.82 237.603 37.6031 247.82 25 247.82C12.3969 247.82 2.18 237.603 2.18 225Z" fill="#00243c" fill-rule="nonzero" opacity="1" stroke="none"/>
<path d="M52.18 225C52.18 212.397 62.3969 202.18 75 202.18C87.6031 202.18 97.82 212.397 97.82 225C97.82 237.603 87.6031 247.82 75 247.82C62.3969 247.82 52.18 237.603 52.18 225Z" fill="#00243c" fill-rule="nonzero" opacity="1" stroke="none"/>
<path d="M102.18 225C102.18 212.397 112.397 202.18 125 202.18C137.603 202.18 147.82 212.397 147.82 225C147.82 237.603 137.603 247.82 125 247.82C112.397 247.82 102.18 237.603 102.18 225Z" fill="#00243c" fill-rule="nonzero" opacity="1" stroke="none"/>
<path d="M152.18 225C152.18 212.397 162.397 202.18 175 202.18C187.603 202.18 197.82 212.397 197.82 225C197.82 237.603 187.603 247.82 175 247.82C162.397 247.82 152.18 237.603 152.18 225Z" fill="#00243c" fill-rule="nonzero" opacity="1" stroke="none"/>
<path d="M202.18 225C202.18 212.397 212.397 202.18 225 202.18C237.603 202.18 247.82 212.397 247.82 225C247.82 237.603 237.603 247.82 225 247.82C212.397 247.82 202.18 237.603 202.18 225Z" fill="#00243c" fill-rule="nonzero" opacity="1" stroke="none"/>
<path d="M252.18 225C252.18 212.397 262.397 202.18 275 202.18C287.603 202.18 297.82 212.397 297.82 225C297.82 237.603 287.603 247.82 275 247.82C262.397 247.82 252.18 237.603 252.18 225Z" fill="#00243c" fill-rule="nonzero" opacity="1" stroke="none"/>
<path d="M302.18 225C302.18 212.397 312.397 202.18 325 202.18C337.603 202.18 347.82 212.397 347.82 225C347.82 237.603 337.603 247.82 325 247.82C312.397 247.82 302.18 237.603 302.18 225Z" fill="#00243c" fill-rule="nonzero" opacity="1" stroke="none"/>
<path d="M352.18 225C352.18 212.397 362.397 202.18 375 202.18C387.603 202.18 397.82 212.397 397.82 225C397.82 237.603 387.603 247.82 375 247.82C362.397 247.82 352.18 237.603 352.18 225Z" fill="#00243c" fill-rule="nonzero" opacity="1" stroke="none"/>
<path d="M402.18 225C402.18 212.397 412.397 202.18 425 202.18C437.603 202.18 447.82 212.397 447.82 225C447.82 237.603 437.603 247.82 425 247.82C412.397 247.82 402.18 237.603 402.18 225Z" fill="#00243c" fill-rule="nonzero" opacity="1" stroke="none"/>
<path d="M452.18 225C452.18 212.397 462.397 202.18 475 202.18C487.603 202.18 497.82 212.397 497.82 225C497.82 237.603 487.603 247.82 475 247.82C462.397 247.82 452.18 237.603 452.18 225Z" fill="#00243c" fill-rule="nonzero" opacity="1" stroke="none"/>
<path d="M502.18 225C502.18 212.397 512.397 202.18 525 202.18C537.603 202.18 547.82 212.397 547.82 225C547.82 237.603 537.603 247.82 525 247.82C512.397 247.82 502.18 237.603 502.18 225Z" fill="#00243c" fill-rule="nonzero" opacity="1" stroke="none"/>
<path d="M552.18 225C552.18 212.397 562.397 202.18 575 202.18C587.603 202.18 597.82 212.397 597.82 225C597.82 237.603 587.603 247.82 575 247.82C562.397 247.82 552.18 237.603 552.18 225Z" fill="#00243c" fill-rule="nonzero" opacity="1" stroke="none"/>
<path d="M602.18 225C602.18 212.397 612.397 202.18 625 202.18C637.603 202.18 647.82 212.397 647.82 225C647.82 237.603 637.603 247.82 625 247.82C612.397 247.82 602.18 237.603 602.18 225Z" fill="#00243c" fill-rule="nonzero" opacity="1" stroke="none"/>
<path d="M652.18 225C652.18 212.397 662.397 202.18 675 202.18C687.603 202.18 697.82 212.397 697.82 225C697.82 237.603 687.603 247.82 675 247.82C662.397 247.82 652.18 237.603 652.18 225Z" fill="#00243c" fill-rule="nonzero" opacity="1" stroke="none"/>
<path d="M702.18 225C702.18 212.397 712.397 202.18 725 202.18C737.603 202.18 747.82 212.397 747.82 225C747.82 237.603 737.603 247.82 725 247.82C712.397 247.82 702.18 237.603 702.18 225Z" fill="#00243c" fill-rule="nonzero" opacity="1" stroke="none"/>
<path d="M752.18 225C752.18 212.397 762.397 202.18 775 202.18C787.603 202.18 797.82 212.397 797.82 225C797.82 237.603 787.603 247.82 775 247.82C762.397 247.82 752.18 237.603 752.18 225Z" fill="#00243c" fill-rule="nonzero" opacity="1" stroke="none"/>
<path d="M802.18 225C802.18 212.397 812.397 202.18 825 202.18C837.603 202.18 847.82 212.397 847.82 225C847.82 237.603 837.603 247.82 825 247.82C812.397 247.82 802.18 237.603 802.18 225Z" fill="#00243c" fill-rule="nonzero" opacity="1" stroke="none"/>
<path d="M852.18 225C852.18 212.397 862.397 202.18 875 202.18C887.603 202.18 897.82 212.397 897.82 225C897.82 237.603 887.603 247.82 875 247.82C862.397 247.82 852.18 237.603 852.18 225Z" fill="#00243c" fill-rule="nonzero" opacity="1" stroke="none"/>
<path d="M3.47 275C3.47 263.109 13.1093 253.47 25 253.47C36.8907 253.47 46.53 263.109 46.53 275C46.53 286.891 36.8907 296.53 25 296.53C13.1093 296.53 3.47 286.891 3.47 275Z" fill="#00243c" fill-rule="nonzero" opacity="1" stroke="none"/>
<path d="M53.47 275C53.47 263.109 63.1093 253.47 75 253.47C86.8907 253.47 96.53 263.109 96.53 275C96.53 286.891 86.8907 296.53 75 296.53C63.1093 296.53 53.47 286.891 53.47 275Z" fill="#00243c" fill-rule="nonzero" opacity="1" stroke="none"/>
<path d="M103.47 275C103.47 263.109 113.109 253.47 125 253.47C136.891 253.47 146.53 263.109 146.53 275C146.53 286.891 136.891 296.53 125 296.53C113.109 296.53 103.47 286.891 103.47 275Z" fill="#00243c" fill-rule="nonzero" opacity="1" stroke="none"/>
<path d="M153.47 275C153.47 263.109 163.109 253.47 175 253.47C186.891 253.47 196.53 263.109 196.53 275C196.53 286.891 186.891 296.53 175 296.53C163.109 296.53 153.47 286.891 153.47 275Z" fill="#00243c" fill-rule="nonzero" opacity="1" stroke="none"/>
<path d="M203.47 275C203.47 263.109 213.109 253.47 225 253.47C236.891 253.47 246.53 263.109 246.53 275C246.53 286.891 236.891 296.53 225 296.53C213.109 296.53 203.47 286.891 203.47 275Z" fill="#00243c" fill-rule="nonzero" opacity="1" stroke="none"/>
<path d="M253.47 275C253.47 263.109 263.109 253.47 275 253.47C286.891 253.47 296.53 263.109 296.53 275C296.53 286.891 286.891 296.53 275 296.53C263.109 296.53 253.47 286.891 253.47 275Z" fill="#00243c" fill-rule="nonzero" opacity="1" stroke="none"/>
<path d="M303.47 275C303.47 263.109 313.109 253.47 325 253.47C336.891 253.47 346.53 263.109 346.53 275C346.53 286.891 336.891 296.53 325 296.53C313.109 296.53 303.47 286.891 303.47 275Z" fill="#00243c" fill-rule="nonzero" opacity="1" stroke="none"/>
<path d="M353.47 275C353.47 263.109 363.109 253.47 375 253.47C386.891 253.47 396.53 263.109 396.53 275C396.53 286.891 386.891 296.53 375 296.53C363.109 296.53 353.47 286.891 353.47 275Z" fill="#00243c" fill-rule="nonzero" opacity="1" stroke="none"/>
<path d="M403.47 275C403.47 263.109 413.109 253.47 425 253.47C436.891 253.47 446.53 263.109 446.53 275C446.53 286.891 436.891 296.53 425 296.53C413.109 296.53 403.47 286.891 403.47 275Z" fill="#00243c" fill-rule="nonzero" opacity="1" stroke="none"/>
<path d="M453.47 275C453.47 263.109 463.109 253.47 475 253.47C486.891 253.47 496.53 263.109 496.53 275C496.53 286.891 486.891 296.53 475 296.53C463.109 296.53 453.47 286.891 453.47 275Z" fill="#00243c" fill-rule="nonzero" opacity="1" stroke="none"/>
<path d="M503.47 275C503.47 263.109 513.109 253.47 525 253.47C536.891 253.47 546.53 263.109 546.53 275C546.53 286.891 536.891 296.53 525 296.53C513.109 296.53 503.47 286.891 503.47 275Z" fill="#00243c" fill-rule="nonzero" opacity="1" stroke="none"/>
<path d="M553.47 275C553.47 263.109 563.109 253.47 575 253.47C586.891 253.47 596.53 263.109 596.53 275C596.53 286.891 586.891 296.53 575 296.53C563.109 296.53 553.47 286.891 553.47 275Z" fill="#00243c" fill-rule="nonzero" opacity="1" stroke="none"/>
<path d="M603.47 275C603.47 263.109 613.109 253.47 625 253.47C636.891 253.47 646.53 263.109 646.53 275C646.53 286.891 636.891 296.53 625 296.53C613.109 296.53 603.47 286.891 603.47 275Z" fill="#00243c" fill-rule="nonzero" opacity="1" stroke="none"/>
<path d="M653.47 275C653.47 263.109 663.109 253.47 675 253.47C686.891 253.47 696.53 263.109 696.53 275C696.53 286.891 686.891 296.53 675 296.53C663.109 296.53 653.47 286.891 653.47 275Z" fill="#00243c" fill-rule="nonzero" opacity="1" stroke="none"/>
<path d="M703.47 275C703.47 263.109 713.109 253.47 725 253.47C736.891 253.47 746.53 263.109 746.53 275C746.53 286.891 736.891 296.53 725 296.53C713.109 296.53 703.47 286.891 703.47 275Z" fill="#00243c" fill-rule="nonzero" opacity="1" stroke="none"/>
<path d="M753.47 275C753.47 263.109 763.109 253.47 775 253.47C786.891 253.47 796.53 263.109 796.53 275C796.53 286.891 786.891 296.53 775 296.53C763.109 296.53 753.47 286.891 753.47 275Z" fill="#00243c" fill-rule="nonzero" opacity="1" stroke="none"/>
<path d="M803.47 275C803.47 263.109 813.109 253.47 825 253.47C836.891 253.47 846.53 263.109 846.53 275C846.53 286.891 836.891 296.53 825 296.53C813.109 296.53 803.47 286.891 803.47 275Z" fill="#00243c" fill-rule="nonzero" opacity="1" stroke="none"/>
<path d="M853.47 275C853.47 263.109 863.109 253.47 875 253.47C886.891 253.47 896.53 263.109 896.53 275C896.53 286.891 886.891 296.53 875 296.53C863.109 296.53 853.47 286.891 853.47 275Z" fill="#00243c" fill-rule="nonzero" opacity="1" stroke="none"/>
<path d="M4.76 325C4.76 313.822 13.8218 304.76 25 304.76C36.1782 304.76 45.24 313.822 45.24 325C45.24 336.178 36.1782 345.24 25 345.24C13.8218 345.24 4.76 336.178 4.76 325Z" fill="#00243c" fill-rule="nonzero" opacity="1" stroke="none"/>
<path d="M54.76 325C54.76 313.822 63.8218 304.76 75 304.76C86.1782 304.76 95.24 313.822 95.24 325C95.24 336.178 86.1782 345.24 75 345.24C63.8218 345.24 54.76 336.178 54.76 325Z" fill="#00243c" fill-rule="nonzero" opacity="1" stroke="none"/>
<path d="M104.76 325C104.76 313.822 113.822 304.76 125 304.76C136.178 304.76 145.24 313.822 145.24 325C145.24 336.178 136.178 345.24 125 345.24C113.822 345.24 104.76 336.178 104.76 325Z" fill="#00243c" fill-rule="nonzero" opacity="1" stroke="none"/>
<path d="M154.76 325C154.76 313.822 163.822 304.76 175 304.76C186.178 304.76 195.24 313.822 195.24 325C195.24 336.178 186.178 345.24 175 345.24C163.822 345.24 154.76 336.178 154.76 325Z" fill="#00243c" fill-rule="nonzero" opacity="1" stroke="none"/>
<path d="M204.76 325C204.76 313.822 213.822 304.76 225 304.76C236.178 304.76 245.24 313.822 245.24 325C245.24 336.178 236.178 345.24 225 345.24C213.822 345.24 204.76 336.178 204.76 325Z" fill="#00243c" fill-rule="nonzero" opacity="1" stroke="none"/>
<path d="M254.76 325C254.76 313.822 263.822 304.76 275 304.76C286.178 304.76 295.24 313.822 295.24 325C295.24 336.178 286.178 345.24 275 345.24C263.822 345.24 254.76 336.178 254.76 325Z" fill="#00243c" fill-rule="nonzero" opacity="1" stroke="none"/>
<path d="M304.76 325C304.76 313.822 313.822 304.76 325 304.76C336.178 304.76 345.24 313.822 345.24 325C345.24 336.178 336.178 345.24 325 345.24C313.822 345.24 304.76 336.178 304.76 325Z" fill="#00243c" fill-rule="nonzero" opacity="1" stroke="none"/>
<path d="M354.76 325C354.76 313.822 363.822 304.76 375 304.76C386.178 304.76 395.24 313.822 395.24 325C395.24 336.178 386.178 345.24 375 345.24C363.822 345.24 354.76 336.178 354.76 325Z" fill="#00243c" fill-rule="nonzero" opacity="1" stroke="none"/>
<path d="M404.76 325C404.76 313.822 413.822 304.76 425 304.76C436.178 304.76 445.24 313.822 445.24 325C445.24 336.178 436.178 345.24 425 345.24C413.822 345.24 404.76 336.178 404.76 325Z" fill="#00243c" fill-rule="nonzero" opacity="1" stroke="none"/>
<path d="M454.76 325C454.76 313.822 463.822 304.76 475 304.76C486.178 304.76 495.24 313.822 495.24 325C495.24 336.178 486.178 345.24 475 345.24C463.822 345.24 454.76 336.178 454.76 325Z" fill="#00243c" fill-rule="nonzero" opacity="1" stroke="none"/>
<path d="M504.76 325C504.76 313.822 513.822 304.76 525 304.76C536.178 304.76 545.24 313.822 545.24 325C545.24 336.178 536.178 345.24 525 345.24C513.822 345.24 504.76 336.178 504.76 325Z" fill="#00243c" fill-rule="nonzero" opacity="1" stroke="none"/>
<path d="M554.76 325C554.76 313.822 563.822 304.76 575 304.76C586.178 304.76 595.24 313.822 595.24 325C595.24 336.178 586.178 345.24 575 345.24C563.822 345.24 554.76 336.178 554.76 325Z" fill="#00243c" fill-rule="nonzero" opacity="1" stroke="none"/>
<path d="M604.76 325C604.76 313.822 613.822 304.76 625 304.76C636.178 304.76 645.24 313.822 645.24 325C645.24 336.178 636.178 345.24 625 345.24C613.822 345.24 604.76 336.178 604.76 325Z" fill="#00243c" fill-rule="nonzero" opacity="1" stroke="none"/>
<path d="M654.76 325C654.76 313.822 663.822 304.76 675 304.76C686.178 304.76 695.24 313.822 695.24 325C695.24 336.178 686.178 345.24 675 345.24C663.822 345.24 654.76 336.178 654.76 325Z" fill="#00243c" fill-rule="nonzero" opacity="1" stroke="none"/>
<path d="M704.76 325C704.76 313.822 713.822 304.76 725 304.76C736.178 304.76 745.24 313.822 745.24 325C745.24 336.178 736.178 345.24 725 345.24C713.822 345.24 704.76 336.178 704.76 325Z" fill="#00243c" fill-rule="nonzero" opacity="1" stroke="none"/>
<path d="M754.76 325C754.76 313.822 763.822 304.76 775 304.76C786.178 304.76 795.24 313.822 795.24 325C795.24 336.178 786.178 345.24 775 345.24C763.822 345.24 754.76 336.178 754.76 325Z" fill="#00243c" fill-rule="nonzero" opacity="1" stroke="none"/>
<path d="M804.76 325C804.76 313.822 813.822 304.76 825 304.76C836.178 304.76 845.24 313.822 845.24 325C845.24 336.178 836.178 345.24 825 345.24C813.822 345.24 804.76 336.178 804.76 325Z" fill="#00243c" fill-rule="nonzero" opacity="1" stroke="none"/>
<path d="M854.76 325C854.76 313.822 863.822 304.76 875 304.76C886.178 304.76 895.24 313.822 895.24 325C895.24 336.178 886.178 345.24 875 345.24C863.822 345.24 854.76 336.178 854.76 325Z" fill="#00243c" fill-rule="nonzero" opacity="1" stroke="none"/>
<path d="M6.06 375C6.06 364.54 14.5397 356.06 25 356.06C35.4603 356.06 43.94 364.54 43.94 375C43.94 385.46 35.4603 393.94 25 393.94C14.5397 393.94 6.06 385.46 6.06 375Z" fill="#00243c" fill-rule="nonzero" opacity="1" stroke="none"/>
<path d="M56.06 375C56.06 364.54 64.5397 356.06 75 356.06C85.4603 356.06 93.94 364.54 93.94 375C93.94 385.46 85.4603 393.94 75 393.94C64.5397 393.94 56.06 385.46 56.06 375Z" fill="#00243c" fill-rule="nonzero" opacity="1" stroke="none"/>
<path d="M106.06 375C106.06 364.54 114.54 356.06 125 356.06C135.46 356.06 143.94 364.54 143.94 375C143.94 385.46 135.46 393.94 125 393.94C114.54 393.94 106.06 385.46 106.06 375Z" fill="#00243c" fill-rule="nonzero" opacity="1" stroke="none"/>
<path d="M156.06 375C156.06 364.54 164.54 356.06 175 356.06C185.46 356.06 193.94 364.54 193.94 375C193.94 385.46 185.46 393.94 175 393.94C164.54 393.94 156.06 385.46 156.06 375Z" fill="#00243c" fill-rule="nonzero" opacity="1" stroke="none"/>
<path d="M206.06 375C206.06 364.54 214.54 356.06 225 356.06C235.46 356.06 243.94 364.54 243.94 375C243.94 385.46 235.46 393.94 225 393.94C214.54 393.94 206.06 385.46 206.06 375Z" fill="#00243c" fill-rule="nonzero" opacity="1" stroke="none"/>
<path d="M256.06 375C256.06 364.54 264.54 356.06 275 356.06C285.46 356.06 293.94 364.54 293.94 375C293.94 385.46 285.46 393.94 275 393.94C264.54 393.94 256.06 385.46 256.06 375Z" fill="#00243c" fill-rule="nonzero" opacity="1" stroke="none"/>
<path d="M306.06 375C306.06 364.54 314.54 356.06 325 356.06C335.46 356.06 343.94 364.54 343.94 375C343.94 385.46 335.46 393.94 325 393.94C314.54 393.94 306.06 385.46 306.06 375Z" fill="#00243c" fill-rule="nonzero" opacity="1" stroke="none"/>
<path d="M356.06 375C356.06 364.54 364.54 356.06 375 356.06C385.46 356.06 393.94 364.54 393.94 375C393.94 385.46 385.46 393.94 375 393.94C364.54 393.94 356.06 385.46 356.06 375Z" fill="#00243c" fill-rule="nonzero" opacity="1" stroke="none"/>
<path d="M406.06 375C406.06 364.54 414.54 356.06 425 356.06C435.46 356.06 443.94 364.54 443.94 375C443.94 385.46 435.46 393.94 425 393.94C414.54 393.94 406.06 385.46 406.06 375Z" fill="#00243c" fill-rule="nonzero" opacity="1" stroke="none"/>
<path d="M456.06 375C456.06 364.54 464.54 356.06 475 356.06C485.46 356.06 493.94 364.54 493.94 375C493.94 385.46 485.46 393.94 475 393.94C464.54 393.94 456.06 385.46 456.06 375Z" fill="#00243c" fill-rule="nonzero" opacity="1" stroke="none"/>
<path d="M506.06 375C506.06 364.54 514.54 356.06 525 356.06C535.46 356.06 543.94 364.54 543.94 375C543.94 385.46 535.46 393.94 525 393.94C514.54 393.94 506.06 385.46 506.06 375Z" fill="#00243c" fill-rule="nonzero" opacity="1" stroke="none"/>
<path d="M556.06 375C556.06 364.54 564.54 356.06 575 356.06C585.46 356.06 593.94 364.54 593.94 375C593.94 385.46 585.46 393.94 575 393.94C564.54 393.94 556.06 385.46 556.06 375Z" fill="#00243c" fill-rule="nonzero" opacity="1" stroke="none"/>
<path d="M606.06 375C606.06 364.54 614.54 356.06 625 356.06C635.46 356.06 643.94 364.54 643.94 375C643.94 385.46 635.46 393.94 625 393.94C614.54 393.94 606.06 385.46 606.06 375Z" fill="#00243c" fill-rule="nonzero" opacity="1" stroke="none"/>
<path d="M656.06 375C656.06 364.54 664.54 356.06 675 356.06C685.46 356.06 693.94 364.54 693.94 375C693.94 385.46 685.46 393.94 675 393.94C664.54 393.94 656.06 385.46 656.06 375Z" fill="#00243c" fill-rule="nonzero" opacity="1" stroke="none"/>
<path d="M706.06 375C706.06 364.54 714.54 356.06 725 356.06C735.46 356.06 743.94 364.54 743.94 375C743.94 385.46 735.46 393.94 725 393.94C714.54 393.94 706.06 385.46 706.06 375Z" fill="#00243c" fill-rule="nonzero" opacity="1" stroke="none"/>
<path d="M756.06 375C756.06 364.54 764.54 356.06 775 356.06C785.46 356.06 793.94 364.54 793.94 375C793.94 385.46 785.46 393.94 775 393.94C764.54 393.94 756.06 385.46 756.06 375Z" fill="#00243c" fill-rule="nonzero" opacity="1" stroke="none"/>
<path d="M806.06 375C806.06 364.54 814.54 356.06 825 356.06C835.46 356.06 843.94 364.54 843.94 375C843.94 385.46 835.46 393.94 825 393.94C814.54 393.94 806.06 385.46 806.06 375Z" fill="#00243c" fill-rule="nonzero" opacity="1" stroke="none"/>
<path d="M856.06 375C856.06 364.54 864.54 356.06 875 356.06C885.46 356.06 893.94 364.54 893.94 375C893.94 385.46 885.46 393.94 875 393.94C864.54 393.94 856.06 385.46 856.06 375Z" fill="#00243c" fill-rule="nonzero" opacity="1" stroke="none"/>
<path d="M7.35 425C7.35 415.252 15.2522 407.35 25 407.35C34.7478 407.35 42.65 415.252 42.65 425C42.65 434.748 34.7478 442.65 25 442.65C15.2522 442.65 7.35 434.748 7.35 425Z" fill="#00243c" fill-rule="nonzero" opacity="1" stroke="none"/>
<path d="M57.35 425C57.35 415.252 65.2522 407.35 75 407.35C84.7478 407.35 92.65 415.252 92.65 425C92.65 434.748 84.7478 442.65 75 442.65C65.2522 442.65 57.35 434.748 57.35 425Z" fill="#00243c" fill-rule="nonzero" opacity="1" stroke="none"/>
<path d="M107.35 425C107.35 415.252 115.252 407.35 125 407.35C134.748 407.35 142.65 415.252 142.65 425C142.65 434.748 134.748 442.65 125 442.65C115.252 442.65 107.35 434.748 107.35 425Z" fill="#00243c" fill-rule="nonzero" opacity="1" stroke="none"/>
<path d="M157.35 425C157.35 415.252 165.252 407.35 175 407.35C184.748 407.35 192.65 415.252 192.65 425C192.65 434.748 184.748 442.65 175 442.65C165.252 442.65 157.35 434.748 157.35 425Z" fill="#00243c" fill-rule="nonzero" opacity="1" stroke="none"/>
<path d="M207.35 425C207.35 415.252 215.252 407.35 225 407.35C234.748 407.35 242.65 415.252 242.65 425C242.65 434.748 234.748 442.65 225 442.65C215.252 442.65 207.35 434.748 207.35 425Z" fill="#00243c" fill-rule="nonzero" opacity="1" stroke="none"/>
<path d="M257.35 425C257.35 415.252 265.252 407.35 275 407.35C284.748 407.35 292.65 415.252 292.65 425C292.65 434.748 284.748 442.65 275 442.65C265.252 442.65 257.35 434.748 257.35 425Z" fill="#00243c" fill-rule="nonzero" opacity="1" stroke="none"/>
<path d="M307.35 425C307.35 415.252 315.252 407.35 325 407.35C334.748 407.35 342.65 415.252 342.65 425C342.65 434.748 334.748 442.65 325 442.65C315.252 442.65 307.35 434.748 307.35 425Z" fill="#00243c" fill-rule="nonzero" opacity="1" stroke="none"/>
<path d="M357.35 425C357.35 415.252 365.252 407.35 375 407.35C384.748 407.35 392.65 415.252 392.65 425C392.65 434.748 384.748 442.65 375 442.65C365.252 442.65 357.35 434.748 357.35 425Z" fill="#00243c" fill-rule="nonzero" opacity="1" stroke="none"/>
<path d="M407.35 425C407.35 415.252 415.252 407.35 425 407.35C434.748 407.35 442.65 415.252 442.65 425C442.65 434.748 434.748 442.65 425 442.65C415.252 442.65 407.35 434.748 407.35 425Z" fill="#00243c" fill-rule="nonzero" opacity="1" stroke="none"/>
<path d="M457.35 425C457.35 415.252 465.252 407.35 475 407.35C484.748 407.35 492.65 415.252 492.65 425C492.65 434.748 484.748 442.65 475 442.65C465.252 442.65 457.35 434.748 457.35 425Z" fill="#00243c" fill-rule="nonzero" opacity="1" stroke="none"/>
<path d="M507.35 425C507.35 415.252 515.252 407.35 525 407.35C534.748 407.35 542.65 415.252 542.65 425C542.65 434.748 534.748 442.65 525 442.65C515.252 442.65 507.35 434.748 507.35 425Z" fill="#00243c" fill-rule="nonzero" opacity="1" stroke="none"/>
<path d="M557.35 425C557.35 415.252 565.252 407.35 575 407.35C584.748 407.35 592.65 415.252 592.65 425C592.65 434.748 584.748 442.65 575 442.65C565.252 442.65 557.35 434.748 557.35 425Z" fill="#00243c" fill-rule="nonzero" opacity="1" stroke="none"/>
<path d="M607.35 425C607.35 415.252 615.252 407.35 625 407.35C634.748 407.35 642.65 415.252 642.65 425C642.65 434.748 634.748 442.65 625 442.65C615.252 442.65 607.35 434.748 607.35 425Z" fill="#00243c" fill-rule="nonzero" opacity="1" stroke="none"/>
<path d="M657.35 425C657.35 415.252 665.252 407.35 675 407.35C684.748 407.35 692.65 415.252 692.65 425C692.65 434.748 684.748 442.65 675 442.65C665.252 442.65 657.35 434.748 657.35 425Z" fill="#00243c" fill-rule="nonzero" opacity="1" stroke="none"/>
<path d="M707.35 425C707.35 415.252 715.252 407.35 725 407.35C734.748 407.35 742.65 415.252 742.65 425C742.65 434.748 734.748 442.65 725 442.65C715.252 442.65 707.35 434.748 707.35 425Z" fill="#00243c" fill-rule="nonzero" opacity="1" stroke="none"/>
<path d="M757.35 425C757.35 415.252 765.252 407.35 775 407.35C784.748 407.35 792.65 415.252 792.65 425C792.65 434.748 784.748 442.65 775 442.65C765.252 442.65 757.35 434.748 757.35 425Z" fill="#00243c" fill-rule="nonzero" opacity="1" stroke="none"/>
<path d="M807.35 425C807.35 415.252 815.252 407.35 825 407.35C834.748 407.35 842.65 415.252 842.65 425C842.65 434.748 834.748 442.65 825 442.65C815.252 442.65 807.35 434.748 807.35 425Z" fill="#00243c" fill-rule="nonzero" opacity="1" stroke="none"/>
<path d="M857.35 425C857.35 415.252 865.252 407.35 875 407.35C884.748 407.35 892.65 415.252 892.65 425C892.65 434.748 884.748 442.65 875 442.65C865.252 442.65 857.35 434.748 857.35 425Z" fill="#00243c" fill-rule="nonzero" opacity="1" stroke="none"/>
<path d="M8.65 475C8.65 465.97 15.9701 458.65 25 458.65C34.0299 458.65 41.35 465.97 41.35 475C41.35 484.03 34.0299 491.35 25 491.35C15.9701 491.35 8.65 484.03 8.65 475Z" fill="#00243c" fill-rule="nonzero" opacity="1" stroke="none"/>
<path d="M58.65 475C58.65 465.97 65.9701 458.65 75 458.65C84.0299 458.65 91.35 465.97 91.35 475C91.35 484.03 84.0299 491.35 75 491.35C65.9701 491.35 58.65 484.03 58.65 475Z" fill="#00243c" fill-rule="nonzero" opacity="1" stroke="none"/>
<path d="M108.65 475C108.65 465.97 115.97 458.65 125 458.65C134.03 458.65 141.35 465.97 141.35 475C141.35 484.03 134.03 491.35 125 491.35C115.97 491.35 108.65 484.03 108.65 475Z" fill="#00243c" fill-rule="nonzero" opacity="1" stroke="none"/>
<path d="M158.65 475C158.65 465.97 165.97 458.65 175 458.65C184.03 458.65 191.35 465.97 191.35 475C191.35 484.03 184.03 491.35 175 491.35C165.97 491.35 158.65 484.03 158.65 475Z" fill="#00243c" fill-rule="nonzero" opacity="1" stroke="none"/>
<path d="M208.65 475C208.65 465.97 215.97 458.65 225 458.65C234.03 458.65 241.35 465.97 241.35 475C241.35 484.03 234.03 491.35 225 491.35C215.97 491.35 208.65 484.03 208.65 475Z" fill="#00243c" fill-rule="nonzero" opacity="1" stroke="none"/>
<path d="M258.65 475C258.65 465.97 265.97 458.65 275 458.65C284.03 458.65 291.35 465.97 291.35 475C291.35 484.03 284.03 491.35 275 491.35C265.97 491.35 258.65 484.03 258.65 475Z" fill="#00243c" fill-rule="nonzero" opacity="1" stroke="none"/>
<path d="M308.65 475C308.65 465.97 315.97 458.65 325 458.65C334.03 458.65 341.35 465.97 341.35 475C341.35 484.03 334.03 491.35 325 491.35C315.97 491.35 308.65 484.03 308.65 475Z" fill="#00243c" fill-rule="nonzero" opacity="1" stroke="none"/>
<path d="M358.65 475C358.65 465.97 365.97 458.65 375 458.65C384.03 458.65 391.35 465.97 391.35 475C391.35 484.03 384.03 491.35 375 491.35C365.97 491.35 358.65 484.03 358.65 475Z" fill="#00243c" fill-rule="nonzero" opacity="1" stroke="none"/>
<path d="M408.65 475C408.65 465.97 415.97 458.65 425 458.65C434.03 458.65 441.35 465.97 441.35 475C441.35 484.03 434.03 491.35 425 491.35C415.97 491.35 408.65 484.03 408.65 475Z" fill="#00243c" fill-rule="nonzero" opacity="1" stroke="none"/>
<path d="M458.65 475C458.65 465.97 465.97 458.65 475 458.65C484.03 458.65 491.35 465.97 491.35 475C491.35 484.03 484.03 491.35 475 491.35C465.97 491.35 458.65 484.03 458.65 475Z" fill="#00243c" fill-rule="nonzero" opacity="1" stroke="none"/>
<path d="M508.65 475C508.65 465.97 515.97 458.65 525 458.65C534.03 458.65 541.35 465.97 541.35 475C541.35 484.03 534.03 491.35 525 491.35C515.97 491.35 508.65 484.03 508.65 475Z" fill="#00243c" fill-rule="nonzero" opacity="1" stroke="none"/>
<path d="M558.65 475C558.65 465.97 565.97 458.65 575 458.65C584.03 458.65 591.35 465.97 591.35 475C591.35 484.03 584.03 491.35 575 491.35C565.97 491.35 558.65 484.03 558.65 475Z" fill="#00243c" fill-rule="nonzero" opacity="1" stroke="none"/>
<path d="M608.65 475C608.65 465.97 615.97 458.65 625 458.65C634.03 458.65 641.35 465.97 641.35 475C641.35 484.03 634.03 491.35 625 491.35C615.97 491.35 608.65 484.03 608.65 475Z" fill="#00243c" fill-rule="nonzero" opacity="1" stroke="none"/>
<path d="M658.65 475C658.65 465.97 665.97 458.65 675 458.65C684.03 458.65 691.35 465.97 691.35 475C691.35 484.03 684.03 491.35 675 491.35C665.97 491.35 658.65 484.03 658.65 475Z" fill="#00243c" fill-rule="nonzero" opacity="1" stroke="none"/>
<path d="M708.65 475C708.65 465.97 715.97 458.65 725 458.65C734.03 458.65 741.35 465.97 741.35 475C741.35 484.03 734.03 491.35 725 491.35C715.97 491.35 708.65 484.03 708.65 475Z" fill="#00243c" fill-rule="nonzero" opacity="1" stroke="none"/>
<path d="M758.65 475C758.65 465.97 765.97 458.65 775 458.65C784.03 458.65 791.35 465.97 791.35 475C791.35 484.03 784.03 491.35 775 491.35C765.97 491.35 758.65 484.03 758.65 475Z" fill="#00243c" fill-rule="nonzero" opacity="1" stroke="none"/>
<path d="M808.65 475C808.65 465.97 815.97 458.65 825 458.65C834.03 458.65 841.35 465.97 841.35 475C841.35 484.03 834.03 491.35 825 491.35C815.97 491.35 808.65 484.03 808.65 475Z" fill="#00243c" fill-rule="nonzero" opacity="1" stroke="none"/>
<path d="M858.65 475C858.65 465.97 865.97 458.65 875 458.65C884.03 458.65 891.35 465.97 891.35 475C891.35 484.03 884.03 491.35 875 491.35C865.97 491.35 858.65 484.03 858.65 475Z" fill="#00243c" fill-rule="nonzero" opacity="1" stroke="none"/>
<path d="M9.94 525C9.94 516.683 16.6826 509.94 25 509.94C33.3174 509.94 40.06 516.683 40.06 525C40.06 533.317 33.3174 540.06 25 540.06C16.6826 540.06 9.94 533.317 9.94 525Z" fill="#00243c" fill-rule="nonzero" opacity="1" stroke="none"/>
<path d="M59.94 525C59.94 516.683 66.6826 509.94 75 509.94C83.3174 509.94 90.06 516.683 90.06 525C90.06 533.317 83.3174 540.06 75 540.06C66.6826 540.06 59.94 533.317 59.94 525Z" fill="#00243c" fill-rule="nonzero" opacity="1" stroke="none"/>
<path d="M109.94 525C109.94 516.683 116.683 509.94 125 509.94C133.317 509.94 140.06 516.683 140.06 525C140.06 533.317 133.317 540.06 125 540.06C116.683 540.06 109.94 533.317 109.94 525Z" fill="#00243c" fill-rule="nonzero" opacity="1" stroke="none"/>
<path d="M159.94 525C159.94 516.683 166.683 509.94 175 509.94C183.317 509.94 190.06 516.683 190.06 525C190.06 533.317 183.317 540.06 175 540.06C166.683 540.06 159.94 533.317 159.94 525Z" fill="#00243c" fill-rule="nonzero" opacity="1" stroke="none"/>
<path d="M209.94 525C209.94 516.683 216.683 509.94 225 509.94C233.317 509.94 240.06 516.683 240.06 525C240.06 533.317 233.317 540.06 225 540.06C216.683 540.06 209.94 533.317 209.94 525Z" fill="#00243c" fill-rule="nonzero" opacity="1" stroke="none"/>
<path d="M259.94 525C259.94 516.683 266.683 509.94 275 509.94C283.317 509.94 290.06 516.683 290.06 525C290.06 533.317 283.317 540.06 275 540.06C266.683 540.06 259.94 533.317 259.94 525Z" fill="#00243c" fill-rule="nonzero" opacity="1" stroke="none"/>
<path d="M309.94 525C309.94 516.683 316.683 509.94 325 509.94C333.317 509.94 340.06 516.683 340.06 525C340.06 533.317 333.317 540.06 325 540.06C316.683 540.06 309.94 533.317 309.94 525Z" fill="#00243c" fill-rule="nonzero" opacity="1" stroke="none"/>
<path d="M359.94 525C359.94 516.683 366.683 509.94 375 509.94C383.317 509.94 390.06 516.683 390.06 525C390.06 533.317 383.317 540.06 375 540.06C366.683 540.06 359.94 533.317 359.94 525Z" fill="#00243c" fill-rule="nonzero" opacity="1" stroke="none"/>
<path d="M409.94 525C409.94 516.683 416.683 509.94 425 509.94C433.317 509.94 440.06 516.683 440.06 525C440.06 533.317 433.317 540.06 425 540.06C416.683 540.06 409.94 533.317 409.94 525Z" fill="#00243c" fill-rule="nonzero" opacity="1" stroke="none"/>
<path d="M459.94 525C459.94 516.683 466.683 509.94 475 509.94C483.317 509.94 490.06 516.683 490.06 525C490.06 533.317 483.317 540.06 475 540.06C466.683 540.06 459.94 533.317 459.94 525Z" fill="#00243c" fill-rule="nonzero" opacity="1" stroke="none"/>
<path d="M509.94 525C509.94 516.683 516.683 509.94 525 509.94C533.317 509.94 540.06 516.683 540.06 525C540.06 533.317 533.317 540.06 525 540.06C516.683 540.06 509.94 533.317 509.94 525Z" fill="#00243c" fill-rule="nonzero" opacity="1" stroke="none"/>
<path d="M559.94 525C559.94 516.683 566.683 509.94 575 509.94C583.317 509.94 590.06 516.683 590.06 525C590.06 533.317 583.317 540.06 575 540.06C566.683 540.06 559.94 533.317 559.94 525Z" fill="#00243c" fill-rule="nonzero" opacity="1" stroke="none"/>
<path d="M609.94 525C609.94 516.683 616.683 509.94 625 509.94C633.317 509.94 640.06 516.683 640.06 525C640.06 533.317 633.317 540.06 625 540.06C616.683 540.06 609.94 533.317 609.94 525Z" fill="#00243c" fill-rule="nonzero" opacity="1" stroke="none"/>
<path d="M659.94 525C659.94 516.683 666.683 509.94 675 509.94C683.317 509.94 690.06 516.683 690.06 525C690.06 533.317 683.317 540.06 675 540.06C666.683 540.06 659.94 533.317 659.94 525Z" fill="#00243c" fill-rule="nonzero" opacity="1" stroke="none"/>
<path d="M709.94 525C709.94 516.683 716.683 509.94 725 509.94C733.317 509.94 740.06 516.683 740.06 525C740.06 533.317 733.317 540.06 725 540.06C716.683 540.06 709.94 533.317 709.94 525Z" fill="#00243c" fill-rule="nonzero" opacity="1" stroke="none"/>
<path d="M759.94 525C759.94 516.683 766.683 509.94 775 509.94C783.317 509.94 790.06 516.683 790.06 525C790.06 533.317 783.317 540.06 775 540.06C766.683 540.06 759.94 533.317 759.94 525Z" fill="#00243c" fill-rule="nonzero" opacity="1" stroke="none"/>
<path d="M809.94 525C809.94 516.683 816.683 509.94 825 509.94C833.317 509.94 840.06 516.683 840.06 525C840.06 533.317 833.317 540.06 825 540.06C816.683 540.06 809.94 533.317 809.94 525Z" fill="#00243c" fill-rule="nonzero" opacity="1" stroke="none"/>
<path d="M859.94 525C859.94 516.683 866.683 509.94 875 509.94C883.317 509.94 890.06 516.683 890.06 525C890.06 533.317 883.317 540.06 875 540.06C866.683 540.06 859.94 533.317 859.94 525Z" fill="#00243c" fill-rule="nonzero" opacity="1" stroke="none"/>
<path d="M11.24 575C11.24 567.401 17.4006 561.24 25 561.24C32.5994 561.24 38.76 567.401 38.76 575C38.76 582.599 32.5994 588.76 25 588.76C17.4006 588.76 11.24 582.599 11.24 575Z" fill="#00243c" fill-rule="nonzero" opacity="1" stroke="none"/>
<path d="M61.24 575C61.24 567.401 67.4006 561.24 75 561.24C82.5994 561.24 88.76 567.401 88.76 575C88.76 582.599 82.5994 588.76 75 588.76C67.4006 588.76 61.24 582.599 61.24 575Z" fill="#00243c" fill-rule="nonzero" opacity="1" stroke="none"/>
<path d="M111.24 575C111.24 567.401 117.401 561.24 125 561.24C132.599 561.24 138.76 567.401 138.76 575C138.76 582.599 132.599 588.76 125 588.76C117.401 588.76 111.24 582.599 111.24 575Z" fill="#00243c" fill-rule="nonzero" opacity="1" stroke="none"/>
<path d="M161.24 575C161.24 567.401 167.401 561.24 175 561.24C182.599 561.24 188.76 567.401 188.76 575C188.76 582.599 182.599 588.76 175 588.76C167.401 588.76 161.24 582.599 161.24 575Z" fill="#00243c" fill-rule="nonzero" opacity="1" stroke="none"/>
<path d="M211.24 575C211.24 567.401 217.401 561.24 225 561.24C232.599 561.24 238.76 567.401 238.76 575C238.76 582.599 232.599 588.76 225 588.76C217.401 588.76 211.24 582.599 211.24 575Z" fill="#00243c" fill-rule="nonzero" opacity="1" stroke="none"/>
<path d="M261.24 575C261.24 567.401 267.401 561.24 275 561.24C282.599 561.24 288.76 567.401 288.76 575C288.76 582.599 282.599 588.76 275 588.76C267.401 588.76 261.24 582.599 261.24 575Z" fill="#00243c" fill-rule="nonzero" opacity="1" stroke="none"/>
<path d="M311.24 575C311.24 567.401 317.401 561.24 325 561.24C332.599 561.24 338.76 567.401 338.76 575C338.76 582.599 332.599 588.76 325 588.76C317.401 588.76 311.24 582.599 311.24 575Z" fill="#00243c" fill-rule="nonzero" opacity="1" stroke="none"/>
<path d="M361.24 575C361.24 567.401 367.401 561.24 375 561.24C382.599 561.24 388.76 567.401 388.76 575C388.76 582.599 382.599 588.76 375 588.76C367.401 588.76 361.24 582.599 361.24 575Z" fill="#00243c" fill-rule="nonzero" opacity="1" stroke="none"/>
<path d="M411.24 575C411.24 567.401 417.401 561.24 425 561.24C432.599 561.24 438.76 567.401 438.76 575C438.76 582.599 432.599 588.76 425 588.76C417.401 588.76 411.24 582.599 411.24 575Z" fill="#00243c" fill-rule="nonzero" opacity="1" stroke="none"/>
<path d="M461.24 575C461.24 567.401 467.401 561.24 475 561.24C482.599 561.24 488.76 567.401 488.76 575C488.76 582.599 482.599 588.76 475 588.76C467.401 588.76 461.24 582.599 461.24 575Z" fill="#00243c" fill-rule="nonzero" opacity="1" stroke="none"/>
<path d="M511.24 575C511.24 567.401 517.401 561.24 525 561.24C532.599 561.24 538.76 567.401 538.76 575C538.76 582.599 532.599 588.76 525 588.76C517.401 588.76 511.24 582.599 511.24 575Z" fill="#00243c" fill-rule="nonzero" opacity="1" stroke="none"/>
<path d="M561.24 575C561.24 567.401 567.401 561.24 575 561.24C582.599 561.24 588.76 567.401 588.76 575C588.76 582.599 582.599 588.76 575 588.76C567.401 588.76 561.24 582.599 561.24 575Z" fill="#00243c" fill-rule="nonzero" opacity="1" stroke="none"/>
<path d="M611.24 575C611.24 567.401 617.401 561.24 625 561.24C632.599 561.24 638.76 567.401 638.76 575C638.76 582.599 632.599 588.76 625 588.76C617.401 588.76 611.24 582.599 611.24 575Z" fill="#00243c" fill-rule="nonzero" opacity="1" stroke="none"/>
<path d="M661.24 575C661.24 567.401 667.401 561.24 675 561.24C682.599 561.24 688.76 567.401 688.76 575C688.76 582.599 682.599 588.76 675 588.76C667.401 588.76 661.24 582.599 661.24 575Z" fill="#00243c" fill-rule="nonzero" opacity="1" stroke="none"/>
<path d="M711.24 575C711.24 567.401 717.401 561.24 725 561.24C732.599 561.24 738.76 567.401 738.76 575C738.76 582.599 732.599 588.76 725 588.76C717.401 588.76 711.24 582.599 711.24 575Z" fill="#00243c" fill-rule="nonzero" opacity="1" stroke="none"/>
<path d="M761.24 575C761.24 567.401 767.401 561.24 775 561.24C782.599 561.24 788.76 567.401 788.76 575C788.76 582.599 782.599 588.76 775 588.76C767.401 588.76 761.24 582.599 761.24 575Z" fill="#00243c" fill-rule="nonzero" opacity="1" stroke="none"/>
<path d="M811.24 575C811.24 567.401 817.401 561.24 825 561.24C832.599 561.24 838.76 567.401 838.76 575C838.76 582.599 832.599 588.76 825 588.76C817.401 588.76 811.24 582.599 811.24 575Z" fill="#00243c" fill-rule="nonzero" opacity="1" stroke="none"/>
<path d="M861.24 575C861.24 567.401 867.401 561.24 875 561.24C882.599 561.24 888.76 567.401 888.76 575C888.76 582.599 882.599 588.76 875 588.76C867.401 588.76 861.24 582.599 861.24 575Z" fill="#00243c" fill-rule="nonzero" opacity="1" stroke="none"/>
<path d="M12.53 625C12.53 618.113 18.113 612.53 25 612.53C31.887 612.53 37.47 618.113 37.47 625C37.47 631.887 31.887 637.47 25 637.47C18.113 637.47 12.53 631.887 12.53 625Z" fill="#00243c" fill-rule="nonzero" opacity="1" stroke="none"/>
<path d="M62.53 625C62.53 618.113 68.113 612.53 75 612.53C81.887 612.53 87.47 618.113 87.47 625C87.47 631.887 81.887 637.47 75 637.47C68.113 637.47 62.53 631.887 62.53 625Z" fill="#00243c" fill-rule="nonzero" opacity="1" stroke="none"/>
<path d="M112.53 625C112.53 618.113 118.113 612.53 125 612.53C131.887 612.53 137.47 618.113 137.47 625C137.47 631.887 131.887 637.47 125 637.47C118.113 637.47 112.53 631.887 112.53 625Z" fill="#00243c" fill-rule="nonzero" opacity="1" stroke="none"/>
<path d="M162.53 625C162.53 618.113 168.113 612.53 175 612.53C181.887 612.53 187.47 618.113 187.47 625C187.47 631.887 181.887 637.47 175 637.47C168.113 637.47 162.53 631.887 162.53 625Z" fill="#00243c" fill-rule="nonzero" opacity="1" stroke="none"/>
<path d="M212.53 625C212.53 618.113 218.113 612.53 225 612.53C231.887 612.53 237.47 618.113 237.47 625C237.47 631.887 231.887 637.47 225 637.47C218.113 637.47 212.53 631.887 212.53 625Z" fill="#00243c" fill-rule="nonzero" opacity="1" stroke="none"/>
<path d="M262.53 625C262.53 618.113 268.113 612.53 275 612.53C281.887 612.53 287.47 618.113 287.47 625C287.47 631.887 281.887 637.47 275 637.47C268.113 637.47 262.53 631.887 262.53 625Z" fill="#00243c" fill-rule="nonzero" opacity="1" stroke="none"/>
<path d="M312.53 625C312.53 618.113 318.113 612.53 325 612.53C331.887 612.53 337.47 618.113 337.47 625C337.47 631.887 331.887 637.47 325 637.47C318.113 637.47 312.53 631.887 312.53 625Z" fill="#00243c" fill-rule="nonzero" opacity="1" stroke="none"/>
<path d="M362.53 625C362.53 618.113 368.113 612.53 375 612.53C381.887 612.53 387.47 618.113 387.47 625C387.47 631.887 381.887 637.47 375 637.47C368.113 637.47 362.53 631.887 362.53 625Z" fill="#00243c" fill-rule="nonzero" opacity="1" stroke="none"/>
<path d="M412.53 625C412.53 618.113 418.113 612.53 425 612.53C431.887 612.53 437.47 618.113 437.47 625C437.47 631.887 431.887 637.47 425 637.47C418.113 637.47 412.53 631.887 412.53 625Z" fill="#00243c" fill-rule="nonzero" opacity="1" stroke="none"/>
<path d="M462.53 625C462.53 618.113 468.113 612.53 475 612.53C481.887 612.53 487.47 618.113 487.47 625C487.47 631.887 481.887 637.47 475 637.47C468.113 637.47 462.53 631.887 462.53 625Z" fill="#00243c" fill-rule="nonzero" opacity="1" stroke="none"/>
<path d="M512.53 625C512.53 618.113 518.113 612.53 525 612.53C531.887 612.53 537.47 618.113 537.47 625C537.47 631.887 531.887 637.47 525 637.47C518.113 637.47 512.53 631.887 512.53 625Z" fill="#00243c" fill-rule="nonzero" opacity="1" stroke="none"/>
<path d="M562.53 625C562.53 618.113 568.113 612.53 575 612.53C581.887 612.53 587.47 618.113 587.47 625C587.47 631.887 581.887 637.47 575 637.47C568.113 637.47 562.53 631.887 562.53 625Z" fill="#00243c" fill-rule="nonzero" opacity="1" stroke="none"/>
<path d="M612.53 625C612.53 618.113 618.113 612.53 625 612.53C631.887 612.53 637.47 618.113 637.47 625C637.47 631.887 631.887 637.47 625 637.47C618.113 637.47 612.53 631.887 612.53 625Z" fill="#00243c" fill-rule="nonzero" opacity="1" stroke="none"/>
<path d="M662.53 625C662.53 618.113 668.113 612.53 675 612.53C681.887 612.53 687.47 618.113 687.47 625C687.47 631.887 681.887 637.47 675 637.47C668.113 637.47 662.53 631.887 662.53 625Z" fill="#00243c" fill-rule="nonzero" opacity="1" stroke="none"/>
<path d="M712.53 625C712.53 618.113 718.113 612.53 725 612.53C731.887 612.53 737.47 618.113 737.47 625C737.47 631.887 731.887 637.47 725 637.47C718.113 637.47 712.53 631.887 712.53 625Z" fill="#00243c" fill-rule="nonzero" opacity="1" stroke="none"/>
<path d="M762.53 625C762.53 618.113 768.113 612.53 775 612.53C781.887 612.53 787.47 618.113 787.47 625C787.47 631.887 781.887 637.47 775 637.47C768.113 637.47 762.53 631.887 762.53 625Z" fill="#00243c" fill-rule="nonzero" opacity="1" stroke="none"/>
<path d="M812.53 625C812.53 618.113 818.113 612.53 825 612.53C831.887 612.53 837.47 618.113 837.47 625C837.47 631.887 831.887 637.47 825 637.47C818.113 637.47 812.53 631.887 812.53 625Z" fill="#00243c" fill-rule="nonzero" opacity="1" stroke="none"/>
<path d="M862.53 625C862.53 618.113 868.113 612.53 875 612.53C881.887 612.53 887.47 618.113 887.47 625C887.47 631.887 881.887 637.47 875 637.47C868.113 637.47 862.53 631.887 862.53 625Z" fill="#00243c" fill-rule="nonzero" opacity="1" stroke="none"/>
<path d="M13.82 675C13.82 668.825 18.8255 663.82 25 663.82C31.1745 663.82 36.18 668.825 36.18 675C36.18 681.175 31.1745 686.18 25 686.18C18.8255 686.18 13.82 681.175 13.82 675Z" fill="#00243c" fill-rule="nonzero" opacity="1" stroke="none"/>
<path d="M63.82 675C63.82 668.825 68.8255 663.82 75 663.82C81.1745 663.82 86.18 668.825 86.18 675C86.18 681.175 81.1745 686.18 75 686.18C68.8255 686.18 63.82 681.175 63.82 675Z" fill="#00243c" fill-rule="nonzero" opacity="1" stroke="none"/>
<path d="M113.82 675C113.82 668.825 118.825 663.82 125 663.82C131.175 663.82 136.18 668.825 136.18 675C136.18 681.175 131.175 686.18 125 686.18C118.825 686.18 113.82 681.175 113.82 675Z" fill="#00243c" fill-rule="nonzero" opacity="1" stroke="none"/>
<path d="M163.82 675C163.82 668.825 168.825 663.82 175 663.82C181.175 663.82 186.18 668.825 186.18 675C186.18 681.175 181.175 686.18 175 686.18C168.825 686.18 163.82 681.175 163.82 675Z" fill="#00243c" fill-rule="nonzero" opacity="1" stroke="none"/>
<path d="M213.82 675C213.82 668.825 218.825 663.82 225 663.82C231.175 663.82 236.18 668.825 236.18 675C236.18 681.175 231.175 686.18 225 686.18C218.825 686.18 213.82 681.175 213.82 675Z" fill="#00243c" fill-rule="nonzero" opacity="1" stroke="none"/>
<path d="M263.82 675C263.82 668.825 268.825 663.82 275 663.82C281.175 663.82 286.18 668.825 286.18 675C286.18 681.175 281.175 686.18 275 686.18C268.825 686.18 263.82 681.175 263.82 675Z" fill="#00243c" fill-rule="nonzero" opacity="1" stroke="none"/>
<path d="M313.82 675C313.82 668.825 318.825 663.82 325 663.82C331.175 663.82 336.18 668.825 336.18 675C336.18 681.175 331.175 686.18 325 686.18C318.825 686.18 313.82 681.175 313.82 675Z" fill="#00243c" fill-rule="nonzero" opacity="1" stroke="none"/>
<path d="M363.82 675C363.82 668.825 368.825 663.82 375 663.82C381.175 663.82 386.18 668.825 386.18 675C386.18 681.175 381.175 686.18 375 686.18C368.825 686.18 363.82 681.175 363.82 675Z" fill="#00243c" fill-rule="nonzero" opacity="1" stroke="none"/>
<path d="M413.82 675C413.82 668.825 418.825 663.82 425 663.82C431.175 663.82 436.18 668.825 436.18 675C436.18 681.175 431.175 686.18 425 686.18C418.825 686.18 413.82 681.175 413.82 675Z" fill="#00243c" fill-rule="nonzero" opacity="1" stroke="none"/>
<path d="M463.82 675C463.82 668.825 468.825 663.82 475 663.82C481.175 663.82 486.18 668.825 486.18 675C486.18 681.175 481.175 686.18 475 686.18C468.825 686.18 463.82 681.175 463.82 675Z" fill="#00243c" fill-rule="nonzero" opacity="1" stroke="none"/>
<path d="M513.82 675C513.82 668.825 518.825 663.82 525 663.82C531.175 663.82 536.18 668.825 536.18 675C536.18 681.175 531.175 686.18 525 686.18C518.825 686.18 513.82 681.175 513.82 675Z" fill="#00243c" fill-rule="nonzero" opacity="1" stroke="none"/>
<path d="M563.82 675C563.82 668.825 568.825 663.82 575 663.82C581.175 663.82 586.18 668.825 586.18 675C586.18 681.175 581.175 686.18 575 686.18C568.825 686.18 563.82 681.175 563.82 675Z" fill="#00243c" fill-rule="nonzero" opacity="1" stroke="none"/>
<path d="M613.82 675C613.82 668.825 618.825 663.82 625 663.82C631.175 663.82 636.18 668.825 636.18 675C636.18 681.175 631.175 686.18 625 686.18C618.825 686.18 613.82 681.175 613.82 675Z" fill="#00243c" fill-rule="nonzero" opacity="1" stroke="none"/>
<path d="M663.82 675C663.82 668.825 668.825 663.82 675 663.82C681.175 663.82 686.18 668.825 686.18 675C686.18 681.175 681.175 686.18 675 686.18C668.825 686.18 663.82 681.175 663.82 675Z" fill="#00243c" fill-rule="nonzero" opacity="1" stroke="none"/>
<path d="M713.82 675C713.82 668.825 718.825 663.82 725 663.82C731.175 663.82 736.18 668.825 736.18 675C736.18 681.175 731.175 686.18 725 686.18C718.825 686.18 713.82 681.175 713.82 675Z" fill="#00243c" fill-rule="nonzero" opacity="1" stroke="none"/>
<path d="M763.82 675C763.82 668.825 768.825 663.82 775 663.82C781.175 663.82 786.18 668.825 786.18 675C786.18 681.175 781.175 686.18 775 686.18C768.825 686.18 763.82 681.175 763.82 675Z" fill="#00243c" fill-rule="nonzero" opacity="1" stroke="none"/>
<path d="M813.82 675C813.82 668.825 818.825 663.82 825 663.82C831.175 663.82 836.18 668.825 836.18 675C836.18 681.175 831.175 686.18 825 686.18C818.825 686.18 813.82 681.175 813.82 675Z" fill="#00243c" fill-rule="nonzero" opacity="1" stroke="none"/>
<path d="M863.82 675C863.82 668.825 868.825 663.82 875 663.82C881.175 663.82 886.18 668.825 886.18 675C886.18 681.175 881.175 686.18 875 686.18C868.825 686.18 863.82 681.175 863.82 675Z" fill="#00243c" fill-rule="nonzero" opacity="1" stroke="none"/>
<path d="M15.12 725C15.12 719.543 19.5434 715.12 25 715.12C30.4566 715.12 34.88 719.543 34.88 725C34.88 730.457 30.4566 734.88 25 734.88C19.5434 734.88 15.12 730.457 15.12 725Z" fill="#00243c" fill-rule="nonzero" opacity="1" stroke="none"/>
<path d="M65.12 725C65.12 719.543 69.5434 715.12 75 715.12C80.4566 715.12 84.88 719.543 84.88 725C84.88 730.457 80.4566 734.88 75 734.88C69.5434 734.88 65.12 730.457 65.12 725Z" fill="#00243c" fill-rule="nonzero" opacity="1" stroke="none"/>
<path d="M115.12 725C115.12 719.543 119.543 715.12 125 715.12C130.457 715.12 134.88 719.543 134.88 725C134.88 730.457 130.457 734.88 125 734.88C119.543 734.88 115.12 730.457 115.12 725Z" fill="#00243c" fill-rule="nonzero" opacity="1" stroke="none"/>
<path d="M165.12 725C165.12 719.543 169.543 715.12 175 715.12C180.457 715.12 184.88 719.543 184.88 725C184.88 730.457 180.457 734.88 175 734.88C169.543 734.88 165.12 730.457 165.12 725Z" fill="#00243c" fill-rule="nonzero" opacity="1" stroke="none"/>
<path d="M215.12 725C215.12 719.543 219.543 715.12 225 715.12C230.457 715.12 234.88 719.543 234.88 725C234.88 730.457 230.457 734.88 225 734.88C219.543 734.88 215.12 730.457 215.12 725Z" fill="#00243c" fill-rule="nonzero" opacity="1" stroke="none"/>
<path d="M265.12 725C265.12 719.543 269.543 715.12 275 715.12C280.457 715.12 284.88 719.543 284.88 725C284.88 730.457 280.457 734.88 275 734.88C269.543 734.88 265.12 730.457 265.12 725Z" fill="#00243c" fill-rule="nonzero" opacity="1" stroke="none"/>
<path d="M315.12 725C315.12 719.543 319.543 715.12 325 715.12C330.457 715.12 334.88 719.543 334.88 725C334.88 730.457 330.457 734.88 325 734.88C319.543 734.88 315.12 730.457 315.12 725Z" fill="#00243c" fill-rule="nonzero" opacity="1" stroke="none"/>
<path d="M365.12 725C365.12 719.543 369.543 715.12 375 715.12C380.457 715.12 384.88 719.543 384.88 725C384.88 730.457 380.457 734.88 375 734.88C369.543 734.88 365.12 730.457 365.12 725Z" fill="#00243c" fill-rule="nonzero" opacity="1" stroke="none"/>
<path d="M415.12 725C415.12 719.543 419.543 715.12 425 715.12C430.457 715.12 434.88 719.543 434.88 725C434.88 730.457 430.457 734.88 425 734.88C419.543 734.88 415.12 730.457 415.12 725Z" fill="#00243c" fill-rule="nonzero" opacity="1" stroke="none"/>
<path d="M465.12 725C465.12 719.543 469.543 715.12 475 715.12C480.457 715.12 484.88 719.543 484.88 725C484.88 730.457 480.457 734.88 475 734.88C469.543 734.88 465.12 730.457 465.12 725Z" fill="#00243c" fill-rule="nonzero" opacity="1" stroke="none"/>
<path d="M515.12 725C515.12 719.543 519.543 715.12 525 715.12C530.457 715.12 534.88 719.543 534.88 725C534.88 730.457 530.457 734.88 525 734.88C519.543 734.88 515.12 730.457 515.12 725Z" fill="#00243c" fill-rule="nonzero" opacity="1" stroke="none"/>
<path d="M565.12 725C565.12 719.543 569.543 715.12 575 715.12C580.457 715.12 584.88 719.543 584.88 725C584.88 730.457 580.457 734.88 575 734.88C569.543 734.88 565.12 730.457 565.12 725Z" fill="#00243c" fill-rule="nonzero" opacity="1" stroke="none"/>
<path d="M615.12 725C615.12 719.543 619.543 715.12 625 715.12C630.457 715.12 634.88 719.543 634.88 725C634.88 730.457 630.457 734.88 625 734.88C619.543 734.88 615.12 730.457 615.12 725Z" fill="#00243c" fill-rule="nonzero" opacity="1" stroke="none"/>
<path d="M665.12 725C665.12 719.543 669.543 715.12 675 715.12C680.457 715.12 684.88 719.543 684.88 725C684.88 730.457 680.457 734.88 675 734.88C669.543 734.88 665.12 730.457 665.12 725Z" fill="#00243c" fill-rule="nonzero" opacity="1" stroke="none"/>
<path d="M715.12 725C715.12 719.543 719.543 715.12 725 715.12C730.457 715.12 734.88 719.543 734.88 725C734.88 730.457 730.457 734.88 725 734.88C719.543 734.88 715.12 730.457 715.12 725Z" fill="#00243c" fill-rule="nonzero" opacity="1" stroke="none"/>
<path d="M765.12 725C765.12 719.543 769.543 715.12 775 715.12C780.457 715.12 784.88 719.543 784.88 725C784.88 730.457 780.457 734.88 775 734.88C769.543 734.88 765.12 730.457 765.12 725Z" fill="#00243c" fill-rule="nonzero" opacity="1" stroke="none"/>
<path d="M815.12 725C815.12 719.543 819.543 715.12 825 715.12C830.457 715.12 834.88 719.543 834.88 725C834.88 730.457 830.457 734.88 825 734.88C819.543 734.88 815.12 730.457 815.12 725Z" fill="#00243c" fill-rule="nonzero" opacity="1" stroke="none"/>
<path d="M865.12 725C865.12 719.543 869.543 715.12 875 715.12C880.457 715.12 884.88 719.543 884.88 725C884.88 730.457 880.457 734.88 875 734.88C869.543 734.88 865.12 730.457 865.12 725Z" fill="#00243c" fill-rule="nonzero" opacity="1" stroke="none"/>
<path d="M16.41 775C16.41 770.256 20.2559 766.41 25 766.41C29.7441 766.41 33.59 770.256 33.59 775C33.59 779.744 29.7441 783.59 25 783.59C20.2559 783.59 16.41 779.744 16.41 775Z" fill="#00243c" fill-rule="nonzero" opacity="1" stroke="none"/>
<path d="M66.41 775C66.41 770.256 70.2559 766.41 75 766.41C79.7441 766.41 83.59 770.256 83.59 775C83.59 779.744 79.7441 783.59 75 783.59C70.2559 783.59 66.41 779.744 66.41 775Z" fill="#00243c" fill-rule="nonzero" opacity="1" stroke="none"/>
<path d="M116.41 775C116.41 770.256 120.256 766.41 125 766.41C129.744 766.41 133.59 770.256 133.59 775C133.59 779.744 129.744 783.59 125 783.59C120.256 783.59 116.41 779.744 116.41 775Z" fill="#00243c" fill-rule="nonzero" opacity="1" stroke="none"/>
<path d="M166.41 775C166.41 770.256 170.256 766.41 175 766.41C179.744 766.41 183.59 770.256 183.59 775C183.59 779.744 179.744 783.59 175 783.59C170.256 783.59 166.41 779.744 166.41 775Z" fill="#00243c" fill-rule="nonzero" opacity="1" stroke="none"/>
<path d="M216.41 775C216.41 770.256 220.256 766.41 225 766.41C229.744 766.41 233.59 770.256 233.59 775C233.59 779.744 229.744 783.59 225 783.59C220.256 783.59 216.41 779.744 216.41 775Z" fill="#00243c" fill-rule="nonzero" opacity="1" stroke="none"/>
<path d="M266.41 775C266.41 770.256 270.256 766.41 275 766.41C279.744 766.41 283.59 770.256 283.59 775C283.59 779.744 279.744 783.59 275 783.59C270.256 783.59 266.41 779.744 266.41 775Z" fill="#00243c" fill-rule="nonzero" opacity="1" stroke="none"/>
<path d="M316.41 775C316.41 770.256 320.256 766.41 325 766.41C329.744 766.41 333.59 770.256 333.59 775C333.59 779.744 329.744 783.59 325 783.59C320.256 783.59 316.41 779.744 316.41 775Z" fill="#00243c" fill-rule="nonzero" opacity="1" stroke="none"/>
<path d="M366.41 775C366.41 770.256 370.256 766.41 375 766.41C379.744 766.41 383.59 770.256 383.59 775C383.59 779.744 379.744 783.59 375 783.59C370.256 783.59 366.41 779.744 366.41 775Z" fill="#00243c" fill-rule="nonzero" opacity="1" stroke="none"/>
<path d="M416.41 775C416.41 770.256 420.256 766.41 425 766.41C429.744 766.41 433.59 770.256 433.59 775C433.59 779.744 429.744 783.59 425 783.59C420.256 783.59 416.41 779.744 416.41 775Z" fill="#00243c" fill-rule="nonzero" opacity="1" stroke="none"/>
<path d="M466.41 775C466.41 770.256 470.256 766.41 475 766.41C479.744 766.41 483.59 770.256 483.59 775C483.59 779.744 479.744 783.59 475 783.59C470.256 783.59 466.41 779.744 466.41 775Z" fill="#00243c" fill-rule="nonzero" opacity="1" stroke="none"/>
<path d="M516.41 775C516.41 770.256 520.256 766.41 525 766.41C529.744 766.41 533.59 770.256 533.59 775C533.59 779.744 529.744 783.59 525 783.59C520.256 783.59 516.41 779.744 516.41 775Z" fill="#00243c" fill-rule="nonzero" opacity="1" stroke="none"/>
<path d="M566.41 775C566.41 770.256 570.256 766.41 575 766.41C579.744 766.41 583.59 770.256 583.59 775C583.59 779.744 579.744 783.59 575 783.59C570.256 783.59 566.41 779.744 566.41 775Z" fill="#00243c" fill-rule="nonzero" opacity="1" stroke="none"/>
<path d="M616.41 775C616.41 770.256 620.256 766.41 625 766.41C629.744 766.41 633.59 770.256 633.59 775C633.59 779.744 629.744 783.59 625 783.59C620.256 783.59 616.41 779.744 616.41 775Z" fill="#00243c" fill-rule="nonzero" opacity="1" stroke="none"/>
<path d="M666.41 775C666.41 770.256 670.256 766.41 675 766.41C679.744 766.41 683.59 770.256 683.59 775C683.59 779.744 679.744 783.59 675 783.59C670.256 783.59 666.41 779.744 666.41 775Z" fill="#00243c" fill-rule="nonzero" opacity="1" stroke="none"/>
<path d="M716.41 775C716.41 770.256 720.256 766.41 725 766.41C729.744 766.41 733.59 770.256 733.59 775C733.59 779.744 729.744 783.59 725 783.59C720.256 783.59 716.41 779.744 716.41 775Z" fill="#00243c" fill-rule="nonzero" opacity="1" stroke="none"/>
<path d="M766.41 775C766.41 770.256 770.256 766.41 775 766.41C779.744 766.41 783.59 770.256 783.59 775C783.59 779.744 779.744 783.59 775 783.59C770.256 783.59 766.41 779.744 766.41 775Z" fill="#00243c" fill-rule="nonzero" opacity="1" stroke="none"/>
<path d="M816.41 775C816.41 770.256 820.256 766.41 825 766.41C829.744 766.41 833.59 770.256 833.59 775C833.59 779.744 829.744 783.59 825 783.59C820.256 783.59 816.41 779.744 816.41 775Z" fill="#00243c" fill-rule="nonzero" opacity="1" stroke="none"/>
<path d="M866.41 775C866.41 770.256 870.256 766.41 875 766.41C879.744 766.41 883.59 770.256 883.59 775C883.59 779.744 879.744 783.59 875 783.59C870.256 783.59 866.41 779.744 866.41 775Z" fill="#00243c" fill-rule="nonzero" opacity="1" stroke="none"/>
<path d="M17.71 825C17.71 820.974 20.9738 817.71 25 817.71C29.0262 817.71 32.29 820.974 32.29 825C32.29 829.026 29.0262 832.29 25 832.29C20.9738 832.29 17.71 829.026 17.71 825Z" fill="#00243c" fill-rule="nonzero" opacity="1" stroke="none"/>
<path d="M67.71 825C67.71 820.974 70.9738 817.71 75 817.71C79.0262 817.71 82.29 820.974 82.29 825C82.29 829.026 79.0262 832.29 75 832.29C70.9738 832.29 67.71 829.026 67.71 825Z" fill="#00243c" fill-rule="nonzero" opacity="1" stroke="none"/>
<path d="M117.71 825C117.71 820.974 120.974 817.71 125 817.71C129.026 817.71 132.29 820.974 132.29 825C132.29 829.026 129.026 832.29 125 832.29C120.974 832.29 117.71 829.026 117.71 825Z" fill="#00243c" fill-rule="nonzero" opacity="1" stroke="none"/>
<path d="M167.71 825C167.71 820.974 170.974 817.71 175 817.71C179.026 817.71 182.29 820.974 182.29 825C182.29 829.026 179.026 832.29 175 832.29C170.974 832.29 167.71 829.026 167.71 825Z" fill="#00243c" fill-rule="nonzero" opacity="1" stroke="none"/>
<path d="M217.71 825C217.71 820.974 220.974 817.71 225 817.71C229.026 817.71 232.29 820.974 232.29 825C232.29 829.026 229.026 832.29 225 832.29C220.974 832.29 217.71 829.026 217.71 825Z" fill="#00243c" fill-rule="nonzero" opacity="1" stroke="none"/>
<path d="M267.71 825C267.71 820.974 270.974 817.71 275 817.71C279.026 817.71 282.29 820.974 282.29 825C282.29 829.026 279.026 832.29 275 832.29C270.974 832.29 267.71 829.026 267.71 825Z" fill="#00243c" fill-rule="nonzero" opacity="1" stroke="none"/>
<path d="M317.71 825C317.71 820.974 320.974 817.71 325 817.71C329.026 817.71 332.29 820.974 332.29 825C332.29 829.026 329.026 832.29 325 832.29C320.974 832.29 317.71 829.026 317.71 825Z" fill="#00243c" fill-rule="nonzero" opacity="1" stroke="none"/>
<path d="M367.71 825C367.71 820.974 370.974 817.71 375 817.71C379.026 817.71 382.29 820.974 382.29 825C382.29 829.026 379.026 832.29 375 832.29C370.974 832.29 367.71 829.026 367.71 825Z" fill="#00243c" fill-rule="nonzero" opacity="1" stroke="none"/>
<path d="M417.71 825C417.71 820.974 420.974 817.71 425 817.71C429.026 817.71 432.29 820.974 432.29 825C432.29 829.026 429.026 832.29 425 832.29C420.974 832.29 417.71 829.026 417.71 825Z" fill="#00243c" fill-rule="nonzero" opacity="1" stroke="none"/>
<path d="M467.71 825C467.71 820.974 470.974 817.71 475 817.71C479.026 817.71 482.29 820.974 482.29 825C482.29 829.026 479.026 832.29 475 832.29C470.974 832.29 467.71 829.026 467.71 825Z" fill="#00243c" fill-rule="nonzero" opacity="1" stroke="none"/>
<path d="M517.71 825C517.71 820.974 520.974 817.71 525 817.71C529.026 817.71 532.29 820.974 532.29 825C532.29 829.026 529.026 832.29 525 832.29C520.974 832.29 517.71 829.026 517.71 825Z" fill="#00243c" fill-rule="nonzero" opacity="1" stroke="none"/>
<path d="M567.71 825C567.71 820.974 570.974 817.71 575 817.71C579.026 817.71 582.29 820.974 582.29 825C582.29 829.026 579.026 832.29 575 832.29C570.974 832.29 567.71 829.026 567.71 825Z" fill="#00243c" fill-rule="nonzero" opacity="1" stroke="none"/>
<path d="M617.71 825C617.71 820.974 620.974 817.71 625 817.71C629.026 817.71 632.29 820.974 632.29 825C632.29 829.026 629.026 832.29 625 832.29C620.974 832.29 617.71 829.026 617.71 825Z" fill="#00243c" fill-rule="nonzero" opacity="1" stroke="none"/>
<path d="M667.71 825C667.71 820.974 670.974 817.71 675 817.71C679.026 817.71 682.29 820.974 682.29 825C682.29 829.026 679.026 832.29 675 832.29C670.974 832.29 667.71 829.026 667.71 825Z" fill="#00243c" fill-rule="nonzero" opacity="1" stroke="none"/>
<path d="M717.71 825C717.71 820.974 720.974 817.71 725 817.71C729.026 817.71 732.29 820.974 732.29 825C732.29 829.026 729.026 832.29 725 832.29C720.974 832.29 717.71 829.026 717.71 825Z" fill="#00243c" fill-rule="nonzero" opacity="1" stroke="none"/>
<path d="M767.71 825C767.71 820.974 770.974 817.71 775 817.71C779.026 817.71 782.29 820.974 782.29 825C782.29 829.026 779.026 832.29 775 832.29C770.974 832.29 767.71 829.026 767.71 825Z" fill="#00243c" fill-rule="nonzero" opacity="1" stroke="none"/>
<path d="M817.71 825C817.71 820.974 820.974 817.71 825 817.71C829.026 817.71 832.29 820.974 832.29 825C832.29 829.026 829.026 832.29 825 832.29C820.974 832.29 817.71 829.026 817.71 825Z" fill="#00243c" fill-rule="nonzero" opacity="1" stroke="none"/>
<path d="M867.71 825C867.71 820.974 870.974 817.71 875 817.71C879.026 817.71 882.29 820.974 882.29 825C882.29 829.026 879.026 832.29 875 832.29C870.974 832.29 867.71 829.026 867.71 825Z" fill="#00243c" fill-rule="nonzero" opacity="1" stroke="none"/>
<path d="M19 875C19 871.686 21.6863 869 25 869C28.3137 869 31 871.686 31 875C31 878.314 28.3137 881 25 881C21.6863 881 19 878.314 19 875Z" fill="#00243c" fill-rule="nonzero" opacity="1" stroke="none"/>
<path d="M69 875C69 871.686 71.6863 869 75 869C78.3137 869 81 871.686 81 875C81 878.314 78.3137 881 75 881C71.6863 881 69 878.314 69 875Z" fill="#00243c" fill-rule="nonzero" opacity="1" stroke="none"/>
<path d="M119 875C119 871.686 121.686 869 125 869C128.314 869 131 871.686 131 875C131 878.314 128.314 881 125 881C121.686 881 119 878.314 119 875Z" fill="#00243c" fill-rule="nonzero" opacity="1" stroke="none"/>
<path d="M169 875C169 871.686 171.686 869 175 869C178.314 869 181 871.686 181 875C181 878.314 178.314 881 175 881C171.686 881 169 878.314 169 875Z" fill="#00243c" fill-rule="nonzero" opacity="1" stroke="none"/>
<path d="M219 875C219 871.686 221.686 869 225 869C228.314 869 231 871.686 231 875C231 878.314 228.314 881 225 881C221.686 881 219 878.314 219 875Z" fill="#00243c" fill-rule="nonzero" opacity="1" stroke="none"/>
<path d="M269 875C269 871.686 271.686 869 275 869C278.314 869 281 871.686 281 875C281 878.314 278.314 881 275 881C271.686 881 269 878.314 269 875Z" fill="#00243c" fill-rule="nonzero" opacity="1" stroke="none"/>
<path d="M319 875C319 871.686 321.686 869 325 869C328.314 869 331 871.686 331 875C331 878.314 328.314 881 325 881C321.686 881 319 878.314 319 875Z" fill="#00243c" fill-rule="nonzero" opacity="1" stroke="none"/>
<path d="M369 875C369 871.686 371.686 869 375 869C378.314 869 381 871.686 381 875C381 878.314 378.314 881 375 881C371.686 881 369 878.314 369 875Z" fill="#00243c" fill-rule="nonzero" opacity="1" stroke="none"/>
<path d="M419 875C419 871.686 421.686 869 425 869C428.314 869 431 871.686 431 875C431 878.314 428.314 881 425 881C421.686 881 419 878.314 419 875Z" fill="#00243c" fill-rule="nonzero" opacity="1" stroke="none"/>
<path d="M469 875C469 871.686 471.686 869 475 869C478.314 869 481 871.686 481 875C481 878.314 478.314 881 475 881C471.686 881 469 878.314 469 875Z" fill="#00243c" fill-rule="nonzero" opacity="1" stroke="none"/>
<path d="M519 875C519 871.686 521.686 869 525 869C528.314 869 531 871.686 531 875C531 878.314 528.314 881 525 881C521.686 881 519 878.314 519 875Z" fill="#00243c" fill-rule="nonzero" opacity="1" stroke="none"/>
<path d="M569 875C569 871.686 571.686 869 575 869C578.314 869 581 871.686 581 875C581 878.314 578.314 881 575 881C571.686 881 569 878.314 569 875Z" fill="#00243c" fill-rule="nonzero" opacity="1" stroke="none"/>
<path d="M619 875C619 871.686 621.686 869 625 869C628.314 869 631 871.686 631 875C631 878.314 628.314 881 625 881C621.686 881 619 878.314 619 875Z" fill="#00243c" fill-rule="nonzero" opacity="1" stroke="none"/>
<path d="M669 875C669 871.686 671.686 869 675 869C678.314 869 681 871.686 681 875C681 878.314 678.314 881 675 881C671.686 881 669 878.314 669 875Z" fill="#00243c" fill-rule="nonzero" opacity="1" stroke="none"/>
<path d="M719 875C719 871.686 721.686 869 725 869C728.314 869 731 871.686 731 875C731 878.314 728.314 881 725 881C721.686 881 719 878.314 719 875Z" fill="#00243c" fill-rule="nonzero" opacity="1" stroke="none"/>
<path d="M769 875C769 871.686 771.686 869 775 869C778.314 869 781 871.686 781 875C781 878.314 778.314 881 775 881C771.686 881 769 878.314 769 875Z" fill="#00243c" fill-rule="nonzero" opacity="1" stroke="none"/>
<path d="M819 875C819 871.686 821.686 869 825 869C828.314 869 831 871.686 831 875C831 878.314 828.314 881 825 881C821.686 881 819 878.314 819 875Z" fill="#00243c" fill-rule="nonzero" opacity="1" stroke="none"/>
<path d="M869 875C869 871.686 871.686 869 875 869C878.314 869 881 871.686 881 875C881 878.314 878.314 881 875 881C871.686 881 869 878.314 869 875Z" fill="#00243c" fill-rule="nonzero" opacity="1" stroke="none"/>
</g>
</svg>
