<?xml version="1.0" encoding="UTF-8" standalone="no"?>
<!DOCTYPE svg PUBLIC "-//W3C//DTD SVG 1.1//EN" "http://www.w3.org/Graphics/SVG/1.1/DTD/svg11.dtd">
<!-- Created with Vectornator (http://vectornator.io/) -->
<svg height="512.0px" stroke-miterlimit="10" style="fill-rule:nonzero;clip-rule:evenodd;stroke-linecap:round;stroke-linejoin:round;" version="1.1" viewBox="0 0 512 512" width="512.0px" xml:space="preserve" xmlns="http://www.w3.org/2000/svg" xmlns:vectornator="http://vectornator.io" xmlns:xlink="http://www.w3.org/1999/xlink">
<defs>
<path d="M106 256C106 173.157 173.157 106 256 106C338.843 106 406 173.157 406 256C406 338.843 338.843 406 256 406C173.157 406 106 338.843 106 256Z" id="Fill"/>
</defs>
<g id="Layer-1" vectornator:layerName="Layer 1">
<g opacity="1" vectornator:layerName="Oval 2">
<mask height="360" id="StrokeMask" maskUnits="userSpaceOnUse" width="360" x="76" y="76">
<rect fill="#ffffff" height="360" stroke="none" width="360" x="76" y="76"/>
<use fill="#000000" fill-rule="evenodd" stroke="none" xlink:href="#Fill"/>
</mask>
<use fill="none" mask="url(#StrokeMask)" stroke="#353535" stroke-linecap="butt" stroke-linejoin="round" stroke-width="60" xlink:href="#Fill"/>
</g>
<path d="M256 18.0878L256 58.6017" fill="none" opacity="1" stroke="#353535" stroke-linecap="round" stroke-linejoin="round" stroke-width="30" vectornator:layerName="Line 3"/>
<path d="M256 453.398L256 493.912" fill="none" opacity="1" stroke="#353535" stroke-linecap="round" stroke-linejoin="round" stroke-width="30" vectornator:layerName="Line 4"/>
<path d="M58.8192 256L18.3053 256" fill="none" opacity="1" stroke="#353535" stroke-linecap="round" stroke-linejoin="round" stroke-width="30" vectornator:layerName="Line 5"/>
<path d="M493.695 256L453.181 256" fill="none" opacity="1" stroke="#353535" stroke-linecap="round" stroke-linejoin="round" stroke-width="30" vectornator:layerName="Line 6"/>
<path d="M433.872 77.3523L405.224 106" fill="none" opacity="1" stroke="#353535" stroke-linecap="round" stroke-linejoin="round" stroke-width="30" vectornator:layerName="Line 7"/>
<path d="M105.224 406L76.5767 434.648" fill="none" opacity="1" stroke="#353535" stroke-linecap="round" stroke-linejoin="round" stroke-width="30" vectornator:layerName="Line 8"/>
<path d="M76.5767 77.3523L105.224 106" fill="none" opacity="1" stroke="#353535" stroke-linecap="round" stroke-linejoin="round" stroke-width="30" vectornator:layerName="Line 9"/>
<path d="M405.224 406.992L433.872 435.64" fill="none" opacity="1" stroke="#353535" stroke-linecap="round" stroke-linejoin="round" stroke-width="30" vectornator:layerName="Line 10"/>
</g>
</svg>
